<svg id="svg" version="1.1" xmlns="http://www.w3.org/2000/svg" xmlns:xlink="http://www.w3.org/1999/xlink" width="400" height="400" viewBox="0, 0, 400,400"><g id="svgg"><path id="path0" d="M192.676 20.117 C 87.359 25.687,12.698 124.542,36.926 226.339 C 37.242 227.667,37.500 228.821,37.500 228.904 C 37.500 228.988,36.653 229.391,35.619 229.800 C 20.623 235.735,12.008 253.747,16.753 269.245 L 17.110 270.410 16.098 271.973 C 10.350 280.845,9.154 292.569,13.029 302.051 L 13.588 303.418 13.219 304.395 C 9.494 314.252,11.407 325.426,18.436 334.863 C 32.580 353.853,86.661 372.769,126.758 372.751 C 149.312 372.740,165.462 367.467,177.980 356.025 L 179.691 354.461 182.570 354.771 C 195.132 356.121,209.126 356.056,221.178 354.591 L 223.509 354.307 225.182 355.833 C 245.044 373.939,276.956 377.651,320.410 366.910 C 336.298 362.983,356.244 355.389,367.773 348.878 C 387.656 337.650,395.790 321.939,390.412 305.152 L 389.835 303.352 390.431 301.852 C 394.166 292.450,392.965 280.676,387.400 272.138 L 386.289 270.435 386.687 269.055 C 387.958 264.642,388.249 257.916,387.347 253.780 C 384.867 242.410,377.112 233.250,366.699 229.395 C 365.625 228.997,364.725 228.652,364.698 228.627 C 364.672 228.603,364.958 227.241,365.335 225.602 C 389.362 120.946,310.477 21.151,202.832 20.025 C 198.965 19.985,194.395 20.026,192.676 20.117 M210.059 34.968 C 305.066 41.513,371.103 130.394,349.694 222.908 C 348.333 228.787,345.548 237.805,343.472 243.054 C 342.634 245.175,342.528 245.077,344.747 244.230 C 354.905 240.351,363.063 242.097,368.403 249.295 C 373.713 256.452,373.279 265.026,367.227 272.515 C 366.639 273.244,366.191 273.870,366.233 273.906 C 366.275 273.943,366.734 274.159,367.254 274.386 C 377.320 278.781,379.825 292.749,372.230 302.135 L 371.293 303.293 372.186 304.332 C 379.119 312.402,376.712 323.508,366.303 331.477 C 354.163 340.770,326.191 351.211,301.555 355.644 C 266.780 361.902,240.993 356.295,229.492 339.974 C 228.481 338.539,228.384 338.457,227.832 338.567 C 226.281 338.877,219.522 339.858,217.090 340.125 C 206.945 341.241,194.680 341.314,184.570 340.318 C 181.745 340.040,173.847 338.977,172.956 338.754 C 172.643 338.676,172.349 338.936,171.566 339.982 C 159.656 355.908,136.587 361.450,103.516 356.331 C 78.144 352.404,48.080 341.510,34.676 331.386 C 24.341 323.581,22.013 312.567,28.939 304.247 L 29.712 303.319 28.453 301.641 C 21.474 292.342,23.754 279.436,33.203 274.749 C 34.116 274.296,34.896 273.907,34.937 273.885 C 34.978 273.862,34.606 273.393,34.111 272.842 C 27.155 265.106,27.343 254.390,34.563 247.053 C 39.760 241.773,47.499 240.795,56.565 244.274 C 56.686 244.320,56.144 242.617,55.360 240.490 C 44.294 210.438,43.048 176.849,51.856 145.996 C 71.680 76.554,138.008 30.004,210.059 34.968 " stroke="none" fill="#fcfbfb" fill-rule="evenodd"></path><path id="path1" d="M144.336 120.526 C 125.064 122.396,119.275 148.014,135.819 158.214 C 139.107 160.241,140.360 159.696,143.915 154.694 C 148.102 148.802,149.774 148.012,154.492 149.694 C 155.620 150.097,157.510 150.769,158.691 151.188 C 162.585 152.570,163.776 152.254,165.068 149.496 C 171.748 135.243,160.119 118.994,144.336 120.526 M247.194 120.525 C 233.323 122.004,224.805 136.868,230.640 149.414 C 232.130 152.618,233.231 152.733,239.457 150.333 C 245.791 147.893,247.441 148.433,251.554 154.297 C 255.779 160.320,257.213 160.633,262.197 156.624 C 277.831 144.047,267.170 118.394,247.194 120.525 M147.559 187.357 C 142.610 190.120,146.799 211.310,154.760 223.786 C 158.261 229.272,164.238 235.721,167.718 237.766 C 167.873 237.857,168.134 237.550,168.475 236.872 C 172.118 229.644,179.971 222.966,188.171 220.122 C 190.748 219.228,191.641 219.735,193.841 223.340 C 199.397 232.443,200.217 232.562,205.269 225.008 C 208.749 219.803,209.390 219.339,211.880 220.212 C 218.959 222.696,225.672 227.989,229.718 234.277 C 230.340 235.244,230.970 236.208,231.118 236.418 C 231.972 237.630,239.889 228.907,243.698 222.559 C 251.488 209.572,255.006 189.375,249.860 187.182 C 247.609 186.223,244.729 187.165,234.061 192.349 C 204.710 206.614,191.856 206.480,162.109 191.603 C 153.430 187.262,149.685 186.169,147.559 187.357 " stroke="none" fill="#3c3c43" fill-rule="evenodd"></path><path id="path2" d="M193.164 45.815 C 192.681 45.855,190.835 45.983,189.063 46.102 C 135.006 49.715,86.668 85.397,66.702 136.426 C 55.571 164.876,54.038 198.254,62.545 226.938 L 62.802 227.802 63.797 226.536 C 68.201 220.932,75.774 219.060,83.477 221.671 C 90.729 224.130,96.002 228.768,103.958 239.685 L 105.621 241.967 105.964 241.052 C 109.648 231.241,117.993 225.793,126.785 227.458 C 134.266 228.874,140.308 235.237,143.742 245.313 C 147.232 255.554,157.304 271.300,166.420 280.768 C 181.599 296.531,185.502 310.406,179.232 326.306 L 178.388 328.445 180.259 328.686 C 193.919 330.444,206.621 330.416,220.140 328.599 L 222.605 328.268 221.953 326.652 C 215.385 310.363,219.365 296.577,235.454 279.885 C 243.509 271.528,253.590 255.786,256.951 246.317 C 259.321 239.638,261.732 235.471,265.023 232.367 C 275.164 222.800,289.761 226.913,294.985 240.809 L 295.423 241.973 297.737 238.841 C 304.027 230.328,308.350 226.131,313.699 223.346 C 321.912 219.069,330.149 219.636,335.668 224.860 C 336.574 225.718,337.345 226.387,337.381 226.345 C 337.556 226.139,339.138 219.569,339.821 216.211 C 357.628 128.588,291.083 46.632,201.465 45.812 C 197.383 45.775,193.647 45.776,193.164 45.815 M149.896 120.610 C 163.312 122.949,170.953 137.493,165.114 149.577 C 163.629 152.650,162.507 152.799,156.892 150.671 C 149.886 148.016,148.542 148.382,144.537 154.035 C 140.031 160.395,138.881 160.728,133.978 157.096 C 125.565 150.866,123.444 138.417,129.285 129.559 C 133.761 122.773,141.939 119.222,149.896 120.610 M254.166 120.877 C 270.972 125.320,275.449 146.564,261.794 157.071 C 257.176 160.624,255.601 160.227,251.563 154.492 C 247.185 148.273,245.901 147.938,238.027 150.964 C 233.193 152.822,231.841 152.503,230.408 149.167 C 225.596 137.967,231.430 125.087,243.034 121.292 C 246.322 120.217,251.009 120.042,254.166 120.877 M107.967 142.102 C 117.665 144.065,121.945 155.666,115.798 163.329 C 109.672 170.966,97.752 169.743,93.440 161.035 C 88.531 151.120,97.133 139.909,107.967 142.102 M300.488 142.457 C 310.067 145.531,312.969 157.388,305.873 164.462 C 297.213 173.095,282.722 166.666,283.249 154.424 C 283.623 145.753,292.202 139.798,300.488 142.457 M151.322 187.029 C 153.508 187.480,155.607 188.358,162.598 191.743 C 192.873 206.403,205.684 206.456,234.473 192.040 C 249.411 184.559,252.259 184.865,252.239 193.945 C 252.207 208.371,244.850 224.809,234.023 234.650 C 215.946 251.080,184.957 251.868,165.719 236.386 C 154.205 227.119,146.215 210.808,145.409 194.922 C 145.071 188.253,146.703 186.075,151.322 187.029 M74.799 231.732 C 72.358 232.521,70.896 235.228,70.900 238.952 C 70.907 246.250,73.345 249.645,92.870 269.543 C 105.295 282.206,108.242 286.524,105.994 288.772 C 103.666 291.100,98.539 288.855,91.879 282.593 C 74.680 266.422,54.478 253.340,46.614 253.282 C 41.250 253.242,38.241 259.378,41.327 264.063 C 44.202 268.429,48.491 271.570,65.723 281.929 C 89.435 296.184,93.566 299.975,90.967 305.097 C 89.674 307.645,87.888 306.947,72.976 298.060 C 56.841 288.445,49.501 284.938,43.500 283.977 C 38.418 283.163,35.453 285.364,35.450 289.952 C 35.447 295.808,41.055 299.993,57.715 306.569 C 65.945 309.818,69.952 311.461,72.220 312.519 C 79.174 315.762,81.966 319.016,80.420 322.076 C 78.711 325.459,74.685 324.419,61.426 317.172 C 46.748 309.149,40.970 307.673,37.635 311.096 C 32.239 316.634,40.232 324.320,59.766 332.379 C 83.115 342.010,105.330 346.949,125.391 346.966 C 149.994 346.988,163.032 339.280,169.409 320.943 C 173.341 309.640,170.390 300.990,158.203 288.087 C 147.681 276.948,137.289 260.551,133.289 248.776 C 129.486 237.582,121.585 234.617,117.298 242.775 C 112.472 251.959,115.742 263.321,125.406 270.949 C 132.444 276.503,133.747 281.833,128.692 284.384 C 123.668 286.921,118.695 284.625,115.043 278.082 C 104.328 258.885,93.458 242.761,87.085 236.612 C 83.106 232.772,77.936 230.719,74.799 231.732 M322.197 231.742 C 313.923 233.835,304.197 246.235,286.538 277.204 C 282.734 283.875,279.726 285.923,274.864 285.152 C 267.067 283.916,267.572 277.350,275.977 270.675 C 285.213 263.340,288.512 251.945,283.956 243.120 C 279.519 234.526,271.891 237.252,267.780 248.902 C 263.439 261.204,253.101 277.401,242.583 288.379 C 229.734 301.789,227.147 311.789,233.186 324.689 C 239.294 337.738,247.923 343.939,263.243 346.291 C 278.765 348.673,302.702 345.669,324.178 338.643 C 353.185 329.152,367.808 319.829,364.607 312.865 C 361.977 307.144,355.990 308.217,339.187 317.424 C 326.736 324.247,322.456 325.364,320.710 322.246 C 318.581 318.443,323.008 314.607,334.961 309.899 C 336.733 309.201,340.776 307.605,343.945 306.352 C 359.397 300.245,365.296 295.878,365.587 290.331 C 365.836 285.581,362.866 283.205,357.634 283.970 C 351.736 284.832,343.940 288.582,326.953 298.728 C 313.087 307.009,311.365 307.632,309.942 304.883 C 307.447 300.063,311.961 296.011,335.856 281.627 C 358.747 267.848,363.231 263.417,360.403 257.372 C 358.034 252.311,353.558 251.956,345.020 256.152 C 336.220 260.477,319.728 272.616,309.769 282.098 C 302.364 289.149,296.564 291.518,294.654 288.273 C 293.694 286.642,295.157 283.843,299.794 278.441 C 301.676 276.248,304.405 273.396,313.182 264.445 C 327.216 250.133,330.078 245.859,330.078 239.209 C 330.078 233.213,327.191 230.478,322.197 231.742 " stroke="none" fill="#fcd41c" fill-rule="evenodd"></path><path id="path3" d="M190.918 34.984 C 121.124 39.099,63.118 89.235,49.146 157.520 C 43.428 185.465,45.941 215.990,56.131 242.351 C 56.519 243.354,56.836 244.243,56.836 244.327 C 56.836 244.410,55.979 244.187,54.932 243.831 C 46.478 240.956,39.330 242.173,34.439 247.323 C 27.470 254.659,27.281 264.269,33.945 272.515 C 34.533 273.244,34.981 273.871,34.939 273.909 C 34.897 273.947,34.204 274.308,33.398 274.711 C 23.654 279.588,21.452 292.753,28.835 301.989 L 29.878 303.294 28.986 304.332 C 22.041 312.416,24.400 323.393,34.795 331.360 C 45.481 339.552,69.796 349.229,91.682 354.001 C 130.180 362.395,157.340 357.856,170.854 340.770 C 171.514 339.936,172.135 339.107,172.236 338.927 C 172.406 338.624,172.676 338.639,175.877 339.130 C 192.301 341.647,208.526 341.589,224.960 338.955 C 226.603 338.692,228.062 338.477,228.203 338.477 C 228.344 338.477,229.095 339.310,229.870 340.329 C 243.356 358.037,271.067 362.558,311.196 353.596 C 331.454 349.072,355.492 339.455,365.764 331.764 C 376.660 323.607,379.126 312.761,372.024 304.231 L 371.238 303.287 371.653 302.767 C 379.729 292.647,377.615 279.151,367.220 274.465 C 366.611 274.190,366.083 273.941,366.047 273.912 C 366.010 273.882,366.479 273.270,367.089 272.551 C 372.527 266.141,373.526 258.127,369.716 251.470 C 364.627 242.575,356.123 240.127,344.830 244.304 C 342.290 245.244,342.462 245.312,343.141 243.642 C 352.749 219.996,355.968 190.697,351.853 164.351 C 339.686 86.458,269.861 30.329,190.918 34.984 M212.109 46.181 C 295.196 53.930,353.440 127.849,340.997 209.755 C 340.306 214.302,337.784 225.872,337.381 226.345 C 337.345 226.387,336.574 225.718,335.668 224.860 C 330.149 219.636,321.912 219.069,313.699 223.346 C 308.350 226.131,304.027 230.328,297.737 238.841 L 295.423 241.973 294.985 240.809 C 289.761 226.913,275.164 222.800,265.023 232.367 C 261.732 235.471,259.321 239.638,256.951 246.317 C 253.590 255.786,243.509 271.528,235.454 279.885 C 219.365 296.577,215.385 310.363,221.953 326.652 L 222.605 328.268 220.140 328.599 C 206.621 330.416,193.919 330.444,180.259 328.686 L 178.388 328.445 179.232 326.306 C 183.915 314.432,182.629 302.671,175.451 291.710 C 173.042 288.031,170.808 285.325,166.420 280.768 C 157.304 271.300,147.232 255.554,143.742 245.313 C 140.308 235.237,134.266 228.874,126.785 227.458 C 117.993 225.793,109.648 231.241,105.964 241.052 L 105.621 241.967 103.958 239.685 C 96.002 228.768,90.729 224.130,83.477 221.671 C 75.774 219.060,68.201 220.932,63.797 226.536 L 62.802 227.802 62.545 226.938 C 54.038 198.254,55.571 164.876,66.702 136.426 C 86.668 85.397,135.006 49.715,189.063 46.102 C 190.835 45.983,192.681 45.855,193.164 45.815 C 195.377 45.636,209.114 45.901,212.109 46.181 M102.970 142.015 C 96.861 143.031,91.981 148.859,91.996 155.117 C 92.025 167.643,107.935 173.132,115.798 163.329 C 123.374 153.883,115.023 140.008,102.970 142.015 M293.848 142.073 C 283.295 144.517,279.566 156.900,287.106 164.462 C 295.730 173.111,310.242 166.670,309.721 154.424 C 309.379 146.392,301.539 140.292,293.848 142.073 M80.311 232.227 C 84.653 233.798,88.341 237.155,93.935 244.629 C 99.723 252.361,108.074 265.596,115.043 278.082 C 118.695 284.625,123.668 286.921,128.692 284.384 C 133.747 281.833,132.444 276.503,125.406 270.949 C 115.742 263.321,112.472 251.959,117.298 242.775 C 121.585 234.617,129.486 237.582,133.289 248.776 C 137.289 260.551,147.681 276.948,158.203 288.087 C 171.574 302.243,174.030 311.672,167.790 324.902 C 161.936 337.315,153.297 343.705,139.160 346.077 C 124.914 348.467,102.274 346.226,82.813 340.499 C 48.790 330.486,30.403 318.519,37.635 311.096 C 40.970 307.673,46.748 309.149,61.426 317.172 C 74.685 324.419,78.711 325.459,80.420 322.076 C 81.966 319.016,79.174 315.762,72.220 312.519 C 69.952 311.461,65.945 309.818,57.715 306.569 C 41.055 299.993,35.447 295.808,35.450 289.952 C 35.453 285.364,38.418 283.163,43.500 283.977 C 49.501 284.938,56.841 288.445,72.976 298.060 C 87.888 306.947,89.674 307.645,90.967 305.097 C 93.566 299.975,89.435 296.184,65.723 281.929 C 48.491 271.570,44.202 268.429,41.327 264.063 C 38.241 259.378,41.250 253.242,46.614 253.282 C 54.478 253.340,74.680 266.422,91.879 282.593 C 98.539 288.855,103.666 291.100,105.994 288.772 C 108.242 286.524,105.295 282.206,92.870 269.543 C 75.248 251.584,72.000 247.471,71.194 242.090 C 69.925 233.627,73.498 229.762,80.311 232.227 M326.881 231.995 C 329.147 233.150,330.078 235.252,330.078 239.209 C 330.078 245.859,327.216 250.133,313.182 264.445 C 304.405 273.396,301.676 276.248,299.794 278.441 C 295.157 283.843,293.694 286.642,294.654 288.273 C 296.564 291.518,302.364 289.149,309.769 282.098 C 319.728 272.616,336.220 260.477,345.020 256.152 C 353.558 251.956,358.034 252.311,360.403 257.372 C 363.231 263.417,358.747 267.848,335.856 281.627 C 311.961 296.011,307.447 300.063,309.942 304.883 C 311.365 307.632,313.087 307.009,326.953 298.728 C 343.940 288.582,351.736 284.832,357.634 283.970 C 362.866 283.205,365.836 285.581,365.587 290.331 C 365.296 295.878,359.397 300.245,343.945 306.352 C 340.776 307.605,336.733 309.201,334.961 309.899 C 323.008 314.607,318.581 318.443,320.710 322.246 C 322.456 325.364,326.736 324.247,339.187 317.424 C 355.990 308.217,361.977 307.144,364.607 312.865 C 370.115 324.847,315.385 346.310,277.539 347.010 C 253.402 347.457,240.898 341.164,233.186 324.689 C 227.147 311.789,229.734 301.789,242.583 288.379 C 253.101 277.401,263.439 261.204,267.780 248.902 C 271.891 237.252,279.519 234.526,283.956 243.120 C 288.512 251.945,285.213 263.340,275.977 270.675 C 267.572 277.350,267.067 283.916,274.864 285.152 C 279.726 285.923,282.734 283.875,286.538 277.204 C 299.908 253.756,310.738 238.319,316.578 234.384 C 320.431 231.788,324.587 230.824,326.881 231.995 M193.408 247.205 C 193.596 247.254,193.904 247.254,194.092 247.205 C 194.280 247.156,194.126 247.116,193.750 247.116 C 193.374 247.116,193.220 247.156,193.408 247.205 M203.760 247.205 C 203.948 247.254,204.255 247.254,204.443 247.205 C 204.631 247.156,204.478 247.116,204.102 247.116 C 203.726 247.116,203.572 247.156,203.760 247.205 M197.412 247.411 C 198.191 247.448,199.465 247.448,200.244 247.411 C 201.023 247.374,200.386 247.343,198.828 247.343 C 197.271 247.343,196.633 247.374,197.412 247.411 " stroke="none" fill="#fbb006" fill-rule="evenodd"></path><path id="path4" d="M187.891 220.212 C 182.230 222.274,177.006 225.827,173.090 230.277 C 170.644 233.057,167.680 237.697,168.100 238.089 C 168.189 238.172,169.066 238.765,170.050 239.406 C 186.531 250.157,212.071 249.923,228.471 238.873 C 231.505 236.829,231.397 236.985,230.662 235.738 C 226.483 228.651,219.514 222.890,211.880 220.212 C 209.390 219.339,208.749 219.803,205.269 225.008 C 200.190 232.603,199.496 232.493,193.737 223.187 C 191.525 219.612,190.695 219.190,187.891 220.212 " stroke="none" fill="#eb4c4b" fill-rule="evenodd"></path><path id="path5" d="M198.301 34.716 C 199.246 34.752,200.740 34.752,201.621 34.715 C 202.502 34.679,201.729 34.650,199.902 34.650 C 198.076 34.650,197.355 34.680,198.301 34.716 M191.846 34.906 C 192.141 34.950,192.625 34.950,192.920 34.906 C 193.215 34.861,192.974 34.824,192.383 34.824 C 191.792 34.824,191.550 34.861,191.846 34.906 M206.885 34.906 C 207.180 34.950,207.664 34.950,207.959 34.906 C 208.254 34.861,208.013 34.824,207.422 34.824 C 206.831 34.824,206.589 34.861,206.885 34.906 M188.625 35.099 C 188.868 35.146,189.220 35.144,189.407 35.095 C 189.593 35.046,189.395 35.008,188.965 35.010 C 188.535 35.012,188.382 35.052,188.625 35.099 M210.303 35.099 C 210.544 35.145,210.940 35.145,211.182 35.099 C 211.423 35.052,211.226 35.014,210.742 35.014 C 210.259 35.014,210.061 35.052,210.303 35.099 M186.182 35.291 C 186.370 35.340,186.677 35.340,186.865 35.291 C 187.053 35.242,186.899 35.202,186.523 35.202 C 186.147 35.202,185.994 35.242,186.182 35.291 M95.984 74.854 L 95.410 75.488 96.045 74.915 C 96.394 74.599,96.680 74.313,96.680 74.280 C 96.680 74.129,96.519 74.262,95.984 74.854 M303.906 75.098 C 304.271 75.474,304.613 75.781,304.666 75.781 C 304.720 75.781,304.466 75.474,304.102 75.098 C 303.737 74.722,303.395 74.414,303.341 74.414 C 303.288 74.414,303.542 74.722,303.906 75.098 M90.818 79.834 L 87.598 83.105 90.869 79.885 C 93.908 76.893,94.229 76.563,94.090 76.563 C 94.062 76.563,92.589 78.035,90.818 79.834 M308.691 79.688 C 310.192 81.191,311.464 82.422,311.518 82.422 C 311.572 82.422,310.388 81.191,308.887 79.688 C 307.386 78.184,306.114 76.953,306.060 76.953 C 306.006 76.953,307.190 78.184,308.691 79.688 M312.891 84.045 C 312.891 84.079,313.176 84.365,313.525 84.680 L 314.160 85.254 313.587 84.619 C 313.052 84.027,312.891 83.895,312.891 84.045 M85.828 85.010 L 85.254 85.645 85.889 85.071 C 86.480 84.536,86.613 84.375,86.462 84.375 C 86.429 84.375,86.143 84.661,85.828 85.010 M46.530 175.195 C 46.530 175.571,46.570 175.725,46.619 175.537 C 46.668 175.349,46.668 175.042,46.619 174.854 C 46.570 174.666,46.530 174.819,46.530 175.195 M46.342 177.930 C 46.342 178.413,46.380 178.611,46.427 178.369 C 46.473 178.127,46.473 177.732,46.427 177.490 C 46.380 177.249,46.342 177.446,46.342 177.930 M353.370 178.418 C 353.372 178.848,353.412 179.000,353.458 178.757 C 353.505 178.515,353.503 178.163,353.455 177.976 C 353.406 177.790,353.367 177.988,353.370 178.418 M46.156 181.641 C 46.156 182.339,46.192 182.625,46.235 182.275 C 46.278 181.926,46.278 181.355,46.235 181.006 C 46.192 180.657,46.156 180.942,46.156 181.641 M353.578 182.422 C 353.578 183.120,353.614 183.406,353.657 183.057 C 353.700 182.708,353.700 182.136,353.657 181.787 C 353.614 181.438,353.578 181.724,353.578 182.422 M353.578 193.164 C 353.578 193.862,353.614 194.148,353.657 193.799 C 353.700 193.450,353.700 192.878,353.657 192.529 C 353.614 192.180,353.578 192.466,353.578 193.164 M46.156 193.945 C 46.156 194.644,46.192 194.929,46.235 194.580 C 46.278 194.231,46.278 193.660,46.235 193.311 C 46.192 192.961,46.156 193.247,46.156 193.945 M353.374 197.266 C 353.374 197.749,353.412 197.947,353.458 197.705 C 353.505 197.463,353.505 197.068,353.458 196.826 C 353.412 196.584,353.374 196.782,353.374 197.266 M46.338 197.754 C 46.340 198.184,46.380 198.336,46.427 198.093 C 46.474 197.850,46.472 197.499,46.423 197.312 C 46.374 197.125,46.336 197.324,46.338 197.754 M352.975 202.344 C 352.975 202.720,353.015 202.874,353.064 202.686 C 353.113 202.498,353.113 202.190,353.064 202.002 C 353.015 201.814,352.975 201.968,352.975 202.344 M44.775 242.322 C 44.963 242.371,45.271 242.371,45.459 242.322 C 45.647 242.273,45.493 242.233,45.117 242.233 C 44.741 242.233,44.587 242.273,44.775 242.322 M47.610 242.326 C 47.853 242.372,48.204 242.371,48.391 242.322 C 48.578 242.273,48.379 242.235,47.949 242.237 C 47.520 242.239,47.367 242.279,47.610 242.326 M352.783 242.322 C 352.971 242.371,353.279 242.371,353.467 242.322 C 353.655 242.273,353.501 242.233,353.125 242.233 C 352.749 242.233,352.595 242.273,352.783 242.322 M355.618 242.326 C 355.860 242.372,356.212 242.371,356.399 242.322 C 356.585 242.273,356.387 242.235,355.957 242.237 C 355.527 242.239,355.375 242.279,355.618 242.326 M34.570 246.973 C 34.096 247.456,33.752 247.852,33.805 247.852 C 33.859 247.852,34.291 247.456,34.766 246.973 C 35.240 246.489,35.584 246.094,35.531 246.094 C 35.477 246.094,35.045 246.489,34.570 246.973 M28.972 259.961 C 28.972 260.767,29.006 261.096,29.049 260.693 C 29.091 260.291,29.091 259.631,29.049 259.229 C 29.006 258.826,28.972 259.155,28.972 259.961 M29.091 277.686 L 28.418 278.418 29.150 277.745 C 29.832 277.118,29.973 276.953,29.823 276.953 C 29.791 276.953,29.461 277.283,29.091 277.686 M376.633 289.844 C 376.633 290.864,376.666 291.282,376.706 290.771 C 376.746 290.261,376.746 289.426,376.706 288.916 C 376.666 288.406,376.633 288.823,376.633 289.844 M376.039 314.844 C 376.039 315.542,376.075 315.828,376.118 315.479 C 376.161 315.129,376.161 314.558,376.118 314.209 C 376.075 313.860,376.039 314.146,376.039 314.844 M31.152 328.320 C 31.899 329.072,32.553 329.688,32.607 329.688 C 32.660 329.688,32.094 329.072,31.348 328.320 C 30.601 327.568,29.947 326.953,29.893 326.953 C 29.840 326.953,30.406 327.568,31.152 328.320 M212.158 340.564 C 212.346 340.613,212.654 340.613,212.842 340.564 C 213.030 340.515,212.876 340.475,212.500 340.475 C 212.124 340.475,211.970 340.515,212.158 340.564 M189.797 340.763 C 190.040 340.810,190.392 340.808,190.578 340.759 C 190.765 340.710,190.566 340.672,190.137 340.674 C 189.707 340.676,189.554 340.716,189.797 340.763 M209.328 340.763 C 209.571 340.810,209.923 340.808,210.110 340.759 C 210.296 340.710,210.098 340.672,209.668 340.674 C 209.238 340.676,209.085 340.716,209.328 340.763 M193.311 340.962 C 193.660 341.005,194.231 341.005,194.580 340.962 C 194.929 340.918,194.644 340.883,193.945 340.883 C 193.247 340.883,192.961 340.918,193.311 340.962 M205.225 340.962 C 205.574 341.005,206.145 341.005,206.494 340.962 C 206.843 340.918,206.558 340.883,205.859 340.883 C 205.161 340.883,204.875 340.918,205.225 340.962 M231.250 342.249 C 231.250 342.282,231.536 342.568,231.885 342.883 L 232.520 343.457 231.946 342.822 C 231.411 342.231,231.250 342.098,231.250 342.249 M167.773 344.238 C 167.299 344.722,166.955 345.117,167.009 345.117 C 167.062 345.117,167.494 344.722,167.969 344.238 C 168.443 343.755,168.787 343.359,168.734 343.359 C 168.680 343.359,168.248 343.755,167.773 344.238 M285.400 357.752 C 285.588 357.801,285.896 357.801,286.084 357.752 C 286.272 357.703,286.118 357.663,285.742 357.663 C 285.366 357.663,285.212 357.703,285.400 357.752 M117.727 357.951 C 117.970 357.997,118.321 357.996,118.508 357.947 C 118.695 357.898,118.496 357.860,118.066 357.862 C 117.637 357.864,117.484 357.904,117.727 357.951 M132.666 357.947 C 132.854 357.996,133.162 357.996,133.350 357.947 C 133.538 357.898,133.384 357.858,133.008 357.858 C 132.632 357.858,132.478 357.898,132.666 357.947 M267.727 357.951 C 267.970 357.997,268.321 357.996,268.508 357.947 C 268.695 357.898,268.496 357.860,268.066 357.862 C 267.637 357.864,267.484 357.904,267.727 357.951 M282.666 357.947 C 282.854 357.996,283.162 357.996,283.350 357.947 C 283.538 357.898,283.384 357.858,283.008 357.858 C 282.632 357.858,282.478 357.898,282.666 357.947 M121.631 358.151 C 122.087 358.192,122.834 358.192,123.291 358.151 C 123.748 358.110,123.374 358.076,122.461 358.076 C 121.548 358.076,121.174 358.110,121.631 358.151 M127.789 358.152 C 128.303 358.192,129.094 358.191,129.547 358.151 C 130.000 358.110,129.580 358.077,128.613 358.077 C 127.646 358.078,127.276 358.111,127.789 358.152 M271.539 358.152 C 272.053 358.192,272.844 358.191,273.297 358.151 C 273.750 358.110,273.330 358.077,272.363 358.077 C 271.396 358.078,271.026 358.111,271.539 358.152 M277.686 358.151 C 278.142 358.192,278.889 358.192,279.346 358.151 C 279.802 358.110,279.429 358.076,278.516 358.076 C 277.603 358.076,277.229 358.110,277.686 358.151 " stroke="none" fill="#fcd273" fill-rule="evenodd"></path><path id="path6" d="M144.875 120.451 C 145.118 120.497,145.470 120.496,145.657 120.447 C 145.843 120.398,145.645 120.360,145.215 120.362 C 144.785 120.364,144.632 120.404,144.875 120.451 M147.314 120.447 C 147.502 120.496,147.810 120.496,147.998 120.447 C 148.186 120.398,148.032 120.358,147.656 120.358 C 147.280 120.358,147.126 120.398,147.314 120.447 M247.705 120.447 C 247.893 120.496,248.201 120.496,248.389 120.447 C 248.577 120.398,248.423 120.358,248.047 120.358 C 247.671 120.358,247.517 120.398,247.705 120.447 M250.149 120.451 C 250.392 120.497,250.743 120.496,250.930 120.447 C 251.117 120.398,250.918 120.360,250.488 120.362 C 250.059 120.364,249.906 120.404,250.149 120.451 M160.840 126.367 C 161.259 126.797,161.647 127.148,161.700 127.148 C 161.754 127.148,161.455 126.797,161.035 126.367 C 160.616 125.937,160.228 125.586,160.175 125.586 C 160.121 125.586,160.420 125.937,160.840 126.367 M269.776 140.723 C 269.778 141.152,269.818 141.305,269.865 141.062 C 269.911 140.819,269.910 140.468,269.861 140.281 C 269.812 140.094,269.774 140.293,269.776 140.723 M150.635 148.963 C 150.823 149.012,151.130 149.012,151.318 148.963 C 151.506 148.914,151.353 148.873,150.977 148.873 C 150.601 148.873,150.447 148.914,150.635 148.963 M146.768 151.025 L 145.996 151.855 146.826 151.083 C 147.598 150.365,147.746 150.195,147.598 150.195 C 147.566 150.195,147.193 150.569,146.768 151.025 M252.204 194.824 C 252.206 195.361,252.244 195.558,252.289 195.261 C 252.333 194.964,252.332 194.525,252.286 194.284 C 252.240 194.044,252.203 194.287,252.204 194.824 M198.096 202.877 C 198.499 202.919,199.158 202.919,199.561 202.877 C 199.963 202.835,199.634 202.800,198.828 202.800 C 198.022 202.800,197.693 202.835,198.096 202.877 M160.742 231.738 C 161.107 232.114,161.449 232.422,161.502 232.422 C 161.556 232.422,161.302 232.114,160.938 231.738 C 160.573 231.362,160.231 231.055,160.177 231.055 C 160.124 231.055,160.378 231.362,160.742 231.738 M162.695 233.655 C 162.695 233.688,162.981 233.974,163.330 234.290 L 163.965 234.863 163.391 234.229 C 162.856 233.637,162.695 233.504,162.695 233.655 " stroke="none" fill="#bb9430" fill-rule="evenodd"></path><path id="path7" d="M167.038 141.016 C 167.038 141.392,167.078 141.545,167.127 141.357 C 167.176 141.169,167.176 140.862,167.127 140.674 C 167.078 140.486,167.038 140.640,167.038 141.016 M247.805 186.857 C 248.048 186.904,248.400 186.902,248.586 186.853 C 248.773 186.804,248.574 186.766,248.145 186.768 C 247.715 186.770,247.562 186.810,247.805 186.857 M145.373 193.262 C 145.374 193.906,145.411 194.146,145.454 193.795 C 145.498 193.444,145.497 192.917,145.452 192.623 C 145.407 192.330,145.372 192.617,145.373 193.262 " stroke="none" fill="#ccac2c" fill-rule="evenodd"></path><path id="path8" d="" stroke="none" fill="#1009cc8" fill-rule="evenodd"></path></g></svg>