<?xml version="1.0" encoding="iso-8859-1"?>
<!-- Generator: Adobe Illustrator 19.0.0, SVG Export Plug-In . SVG Version: 6.00 Build 0)  -->
<svg xmlns="http://www.w3.org/2000/svg" xmlns:xlink="http://www.w3.org/1999/xlink" version="1.1" id="Layer_1" x="0px" y="0px" viewBox="0 0 512.001 512.001" style="enable-background:new 0 0 512.001 512.001;" xml:space="preserve">
<path style="fill:#88DCE5;" d="M432.548,477.916L410.71,368.237c-3.34-16.73-14.813-29.113-33.306-33.854l0,0  c-6.502-1.918-52.144-15.381-58.689-17.312l-36.541,35.797l-26.037-18.312l-26.039,18.312l-36.539-35.797l0.206-0.139  c-6.645,1.96-52.734,15.554-59.163,17.451l0,0c-16.31,3.707-29.685,15.719-33.305,33.854L79.46,477.916  c-1.104,7.799-1.222,26.438,22.965,26.438c3.72,0,303.445,0,307.158,0C433.77,504.354,433.653,485.714,432.548,477.916z"/>
<path style="fill:#74C4C4;" d="M104.446,476.365l21.839-116.113c2.752-14.591,10.42-23.402,17.705-28.639l-9.386,2.769l0,0  c-16.31,3.707-29.685,15.719-33.305,33.854L79.46,477.916c-1.104,7.799-1.222,26.438,22.965,26.438h24.986  C103.224,504.354,103.341,484.621,104.446,476.365z"/>
<path style="fill:#F4CF9D;" d="M294.617,276.75c-0.09,0.043-0.179,0.081-0.269,0.121l0,0v-0.01c-0.006,0.003-0.014,0.007-0.022,0.01  l0,0v-0.121c-23.558,10.925-51.614,11.732-76.913,0v0.121l0,0c-0.008-0.003-0.015-0.007-0.021-0.01v0.01h-0.001  c-0.089-0.041-0.179-0.079-0.268-0.121v27.294l0.267-0.18l38.614,34.691l38.613-34.691L294.617,276.75L294.617,276.75z"/>
<path style="fill:#EFBF86;" d="M242.439,284.242c-8.811-1.31-17.214-3.869-25.026-7.492v0.121l0,0  c-0.008-0.003-0.015-0.007-0.021-0.01v0.01h-0.001c-0.089-0.041-0.179-0.079-0.268-0.121v27.294l0.267-0.18l25.05,22.503  L242.439,284.242L242.439,284.242z"/>
<path style="fill:#68564C;" d="M256.004,7.691c-63.37,0-114.743,51.366-114.743,114.743v30.289h229.485v-30.289  C370.746,59.058,319.374,7.691,256.004,7.691z"/>
<path style="fill:#5E493B;" d="M280.048,10.223c-71.703-15.29-138.787,39.432-138.787,112.212v30.289h48.089v-30.289  C189.35,67.306,228.223,21.273,280.048,10.223z"/>
<g>
	<path style="fill:#E2B481;" d="M135.551,164.251c0,13.224,13.8,23.942,29.59,23.942V140.31   C149.351,140.311,135.551,151.028,135.551,164.251z"/>
	<path style="fill:#E2B481;" d="M376.457,164.251c0,13.224-13.8,23.942-29.591,23.942V140.31   C362.657,140.311,376.457,151.028,376.457,164.251z"/>
</g>
<path style="fill:#F4CF9D;" d="M174.456,117.873c-2.74,2.224-10.316,9.301-10.316,19.556v58.957  c0,50.74,41.128,91.863,91.864,91.863c50.732,0,91.862-41.122,91.862-91.863v-58.957c0-10.255-7.575-17.332-10.314-19.556  C284.216,84.001,223.625,86.641,174.456,117.873z"/>
<path style="fill:#EFBF86;" d="M189.126,196.387c0-91.363-0.04-85.451,0.086-86.828c-2.737,1.34-7.341,3.605-14.756,8.316  c-2.74,2.224-10.316,9.301-10.316,19.556v58.957c0,55.488,48.906,98.55,104.355,91.013  C223.672,281.305,189.126,242.888,189.126,196.387z"/>
<path style="fill:#C7F4F9;" d="M283.809,353.037l34.772-35.967l-23.963-16.206l-38.613,34.691l23.645,17.538  C280.062,353.389,282.159,354.742,283.809,353.037z"/>
<path style="fill:#AAECF7;" d="M305.179,308.007c-0.434,0.449-35.595,36.904-36.132,37.221l10.604,7.865  c0.413,0.296,2.509,1.648,4.159-0.056l34.772-35.967L305.179,308.007z"/>
<path style="fill:#C7F4F9;" d="M232.847,352.731l23.158-17.175l-38.614-34.691l-23.963,16.206l34.378,35.56  C229.783,354.677,232.247,353.154,232.847,352.731z"/>
<path style="fill:#AAECF7;" d="M205.92,308.622l-12.494,8.449l34.378,35.56c1.979,2.046,4.443,0.523,5.042,0.1l9.629-7.141  C240.97,345.239,243.253,347.239,205.92,308.622z"/>
<polygon style="fill:#C62222;" points="266.249,367.026 276.624,350.949 256.004,335.655 256.004,335.555 255.936,335.605   255.869,335.555 255.869,335.655 235.249,350.949 245.625,367.026 245.205,369.702 266.534,369.702 266.113,367.026 "/>
<path style="fill:#F75252;" d="M281.823,466.964l-15.71-99.938c-7.393,0-13.06,0-20.487,0l-15.644,99.523  c-0.321,3.038,0.798,6.224,1.68,7.106c0.001,0.001,19.305,24.481,19.306,24.483c4.185,5.306,7.811,2.325,9.201,0.764l20.006-25.372  C282.209,470.952,281.94,467.8,281.823,466.964z"/>
<path style="fill:#F23B3B;" d="M252.36,469.859c-2.095-2.564-1.681-6.824-1.678-6.849l15.536-95.321l-0.104-0.662  c-7.393,0-13.06,0-20.487,0l-15.644,99.523c-0.321,3.038,0.798,6.224,1.68,7.106c0.001,0.001,19.305,24.481,19.306,24.483  c4.185,5.306,7.811,2.325,9.201,0.764l7.824-9.923C267.869,488.829,252.36,469.859,252.36,469.859z"/>
<path d="M256.004,215.741c4.142,0,7.5-3.358,7.5-7.5v-24.335c0-4.142-3.358-7.5-7.5-7.5s-7.5,3.358-7.5,7.5v24.335  C248.504,212.383,251.862,215.741,256.004,215.741z"/>
<path d="M233.421,235.099c-1.518,3.854,0.376,8.208,4.23,9.728c11.875,4.676,25.071,4.687,36.973,0  c3.854-1.518,5.748-5.873,4.23-9.728c-1.519-3.854-5.871-5.748-9.728-4.23c-8.311,3.273-17.673,3.272-25.981,0  C239.293,229.352,234.938,231.244,233.421,235.099z"/>
<path d="M284.035,162.198c8.307-3.273,17.673-3.273,25.981,0c3.855,1.519,8.211-0.377,9.728-4.229  c1.519-3.854-0.374-8.21-4.229-9.729c-11.874-4.678-25.076-4.689-36.977,0c-3.854,1.519-5.747,5.874-4.229,9.729  C275.825,161.823,280.181,163.716,284.035,162.198z"/>
<path d="M230.988,162.722c8.209,0,10.449-11.448,2.751-14.481c-11.874-4.678-25.075-4.689-36.977,0  c-3.854,1.519-5.747,5.874-4.229,9.729c1.519,3.854,5.874,5.748,9.729,4.229C217.135,156.335,227.964,162.722,230.988,162.722z"/>
<circle cx="218.304" cy="181.651" r="11.031"/>
<circle cx="293.228" cy="181.651" r="11.031"/>
<path d="M440.023,476.579l-21.854-109.758c-4.818-24.137-22.387-34.027-32.43-37.774c-0.413-0.152-63.321-18.697-63.743-18.821  l-19.718-13.335v-12.519c31.266-16.451,53.284-48.986,53.284-89.433c24.625-4.55,36.544-29.274,22.868-47.76  c0.043-0.593,0.028-24.262,0.028-24.858C378.459,54.873,323.586,0,256.139,0c-67.448,0-122.321,54.873-122.321,122.32  c0,0.596-0.015,24.266,0.028,24.858c-13.669,18.479-1.769,43.206,22.868,47.759c0,39.973,21.563,72.619,53.018,89.291v12.841  l-19.244,13.014c-0.468,0.138-63.758,18.792-64.216,18.961c-10.044,3.746-27.612,13.636-32.432,37.778L71.985,476.579  C69.608,488.552,73.133,512,102.322,512h75.678c4.142,0,7.5-3.357,7.5-7.5s-3.358-7.5-7.5-7.5h-22.795v-70.693  c0-4.143-3.358-7.5-7.5-7.5c-4.142,0-7.5,3.357-7.5,7.5v70.693h-37.881c-11.734,0-17.293-4.965-15.581-17.709l21.809-109.531  c3.358-16.822,15.574-23.848,22.728-26.569l59.945-17.683c36.122,37.365,34.557,36.543,38.18,36.871  c1.394,0.127,2.786-0.157,3.93-0.709l4.565,7.072l-15.863,100.914c-0.675,4.298,0.35,4.325,18.501,27.344H204.5  c-4.142,0-7.5,3.357-7.5,7.5s3.358,7.5,7.5,7.5h205.186c10.72,0,18.893-3.154,24.295-9.376  C439.988,495.708,441.677,484.846,440.023,476.579z M245.482,352.828l10.59-7.853l10.589,7.852l-4.356,6.75H249.84L245.482,352.828z   M205.12,318.298l11.726-7.929c17.888,16.07,14.497,13.023,27.452,24.663l-13.396,9.936L205.12,318.298z M267.981,335.031  c10.807-9.71,2.941-2.643,27.451-24.661l11.725,7.929l-25.782,26.668L267.981,335.031z M355.563,179.552v-30.769  C373.668,154.165,373.661,174.171,355.563,179.552z M256.139,15.001c59.176,0,107.319,48.144,107.319,107.32v13.398  c-2.58-1.064-5.325-1.872-8.194-2.38c-1.564-11.1-9.265-18.538-12.793-21.404c-1-0.812-6.843-4.313-11.091-6.641  c-50.217-26.673-103.69-25.315-150.572,0.047c-4.16,2.281-10,5.783-11,6.592c-3.528,2.865-11.231,10.303-12.795,21.405  c-2.87,0.508-5.614,1.316-8.195,2.38v-13.398C148.819,63.145,196.962,15.001,256.139,15.001z M156.713,148.783v30.768  C138.608,174.169,138.616,154.163,156.713,148.783z M171.714,196.324c0-6.452,0-53.024,0-58.997c0-6.695,5.185-11.752,7.237-13.488  c48.47-30.595,105.681-30.737,154.374,0c7.981,6.755,7.236,13.285,7.236,16.371c0,6.866,0,49.929,0,56.113  c0,50.625-44.13,88.845-92.837,84.003C205.152,276.102,171.714,240.071,171.714,196.324z M287.278,290.749v6.779l-31.139,27.976  l-31.407-28.216v-6.618C244.374,297.238,266.568,297.596,287.278,290.749z M409.687,496.999h-37.613v-70.693  c0-4.143-3.357-7.5-7.5-7.5c-4.143,0-7.5,3.357-7.5,7.5v70.693h-85.602l16.981-21.533c2.707-3.432,2.319-0.728-7.034-60.234  c-0.643-4.091-4.475-6.88-8.575-6.244c-4.092,0.644-6.887,4.482-6.244,8.575l8.046,51.188l-18.64,23.637l-18.639-23.637  l14.802-94.17h7.674l2.886,18.361c0.644,4.092,4.479,6.887,8.575,6.244c4.092-0.644,6.887-4.481,6.244-8.575l-3.411-21.701  l4.706-7.291c1.827,0.914,4.028,1.078,6.09,0.27c2.157-0.845-0.143,1.13,36.061-36.319c5.336,1.574,53.968,15.919,59.738,17.622  c7.154,2.721,19.369,9.747,22.727,26.565l21.809,109.536C426.978,492.025,421.43,496.999,409.687,496.999z"/>
<path d="M332.115,418.389h-27.856c-4.143,0-7.5,3.357-7.5,7.5s3.357,7.5,7.5,7.5h27.856c4.143,0,7.5-3.357,7.5-7.5  S336.257,418.389,332.115,418.389z"/>
<g>
</g>
<g>
</g>
<g>
</g>
<g>
</g>
<g>
</g>
<g>
</g>
<g>
</g>
<g>
</g>
<g>
</g>
<g>
</g>
<g>
</g>
<g>
</g>
<g>
</g>
<g>
</g>
<g>
</g>
</svg>
