<svg id="svg" version="1.1" xmlns="http://www.w3.org/2000/svg" xmlns:xlink="http://www.w3.org/1999/xlink" width="400" height="400.0888888888889" viewBox="0, 0, 400,400.0888888888889"><g id="svgg"><path id="path0" d="M199.331 46.139 C 199.011 46.307,198.619 46.701,198.459 47.014 C 198.182 47.554,198.167 51.784,198.164 128.250 L 198.161 208.917 197.495 207.750 C 197.130 207.108,196.757 206.471,196.667 206.333 C 196.577 206.196,196.312 205.725,196.079 205.286 C 195.846 204.848,195.395 204.083,195.078 203.586 C 194.760 203.089,194.500 202.652,194.500 202.613 C 194.500 202.575,193.975 201.667,193.333 200.595 C 192.692 199.523,192.167 198.618,192.167 198.584 C 192.167 198.550,191.810 197.926,191.375 197.197 C 190.426 195.608,190.095 195.041,189.410 193.833 C 189.125 193.329,188.491 192.242,188.003 191.417 C 187.515 190.592,186.597 189.017,185.961 187.917 C 185.326 186.817,184.100 184.717,183.237 183.250 C 182.374 181.783,181.470 180.208,181.229 179.750 C 180.987 179.292,180.738 178.879,180.674 178.833 C 180.611 178.787,180.511 178.637,180.452 178.500 C 180.392 178.362,180.121 177.875,179.849 177.417 C 179.099 176.153,177.133 172.748,176.093 170.911 C 175.732 170.272,175.385 169.712,175.323 169.667 C 175.261 169.621,174.973 169.133,174.684 168.583 C 174.394 168.033,173.778 166.946,173.315 166.167 C 172.325 164.502,171.779 163.566,170.739 161.750 C 170.320 161.017,169.682 159.929,169.322 159.333 C 168.962 158.737,168.442 157.837,168.166 157.333 C 167.889 156.829,167.257 155.742,166.759 154.917 C 166.262 154.092,165.615 152.968,165.321 152.419 C 165.026 151.871,164.657 151.233,164.499 151.003 C 164.342 150.772,163.913 150.058,163.547 149.417 C 162.265 147.173,160.952 144.913,160.689 144.500 C 160.544 144.271,160.246 143.746,160.029 143.333 C 159.811 142.921,159.466 142.321,159.262 142.000 C 158.798 141.271,157.843 139.655,157.294 138.667 C 157.064 138.254,156.481 137.242,155.997 136.417 C 154.630 134.085,153.999 133.003,153.349 131.879 C 149.883 125.876,149.142 124.611,148.836 124.164 C 148.677 123.933,148.305 123.296,148.009 122.747 C 147.713 122.199,147.228 121.337,146.931 120.833 C 145.924 119.122,144.442 116.587,143.961 115.750 C 143.697 115.292,143.258 114.542,142.986 114.083 C 142.714 113.625,142.420 113.100,142.334 112.917 C 141.092 110.276,140.338 110.246,135.635 112.645 C 133.681 113.641,129.758 115.638,126.917 117.082 C 124.075 118.527,120.025 120.590,117.917 121.667 C 115.808 122.744,111.683 124.844,108.750 126.333 C 103.403 129.048,98.930 131.326,89.917 135.924 C 87.258 137.280,83.321 139.285,81.167 140.380 C 73.636 144.205,58.046 152.140,53.667 154.377 C 51.696 155.383,47.646 157.444,44.667 158.955 C 38.110 162.281,37.775 162.558,38.317 164.201 C 38.656 165.227,38.977 165.405,42.612 166.582 C 44.521 167.200,47.171 168.064,48.500 168.501 C 49.829 168.939,52.604 169.840,54.667 170.505 C 56.729 171.169,59.729 172.143,61.333 172.668 C 62.938 173.194,65.825 174.127,67.750 174.743 C 69.675 175.359,71.486 175.969,71.775 176.098 C 72.064 176.228,72.372 176.333,72.458 176.333 C 72.545 176.333,73.622 176.662,74.850 177.063 C 76.078 177.464,78.546 178.259,80.333 178.829 C 82.121 179.400,83.820 179.972,84.109 180.100 C 84.397 180.228,84.705 180.333,84.792 180.333 C 84.880 180.333,86.323 180.783,88.000 181.333 C 89.677 181.883,91.120 182.333,91.208 182.333 C 91.295 182.333,91.603 182.439,91.891 182.569 C 92.180 182.698,92.792 182.917,93.250 183.055 C 93.708 183.194,95.808 183.867,97.917 184.553 C 100.025 185.238,103.888 186.492,106.500 187.339 C 109.112 188.186,112.675 189.347,114.417 189.919 C 116.158 190.492,119.158 191.461,121.083 192.074 C 123.008 192.686,124.733 193.255,124.917 193.339 C 125.100 193.423,126.112 193.749,127.167 194.063 C 128.221 194.378,129.271 194.713,129.500 194.808 C 129.729 194.903,131.492 195.479,133.417 196.088 C 135.342 196.697,137.067 197.257,137.250 197.334 C 137.433 197.410,139.046 197.937,140.833 198.506 C 142.621 199.075,145.396 199.972,147.000 200.499 C 148.604 201.027,151.492 201.965,153.417 202.585 C 155.342 203.204,158.342 204.177,160.083 204.748 C 161.825 205.318,165.387 206.478,168.000 207.324 C 170.612 208.171,173.500 209.110,174.417 209.410 C 175.333 209.710,177.433 210.387,179.083 210.914 C 180.733 211.441,182.320 211.976,182.609 212.103 C 182.897 212.230,183.209 212.333,183.300 212.333 C 183.392 212.333,184.693 212.736,186.192 213.229 C 187.690 213.721,189.685 214.374,190.625 214.679 C 191.565 214.983,192.333 215.277,192.333 215.331 C 192.333 215.434,191.565 215.613,186.500 216.693 C 183.599 217.311,181.565 217.749,174.208 219.342 C 169.627 220.333,165.345 221.259,161.958 221.990 C 160.285 222.351,157.511 222.952,155.792 223.325 C 149.506 224.691,146.352 225.372,143.417 225.996 C 141.767 226.347,138.804 226.985,136.833 227.415 C 134.862 227.844,132.050 228.452,130.583 228.766 C 129.117 229.079,127.804 229.368,127.667 229.408 C 127.529 229.448,125.954 229.789,124.167 230.165 C 122.379 230.542,119.567 231.141,117.917 231.497 C 116.267 231.852,113.642 232.415,112.083 232.749 C 110.525 233.082,109.138 233.385,109.000 233.422 C 108.862 233.458,107.475 233.759,105.917 234.089 C 104.358 234.420,102.971 234.721,102.833 234.759 C 102.696 234.796,101.196 235.121,99.500 235.481 C 97.804 235.841,94.992 236.447,93.250 236.829 C 91.508 237.210,89.033 237.740,87.750 238.008 C 80.735 239.469,80.884 239.321,81.661 244.083 C 81.856 245.275,82.310 248.125,82.671 250.417 C 83.032 252.708,83.632 256.496,84.004 258.833 C 84.377 261.171,84.984 264.996,85.353 267.333 C 85.722 269.671,86.314 273.421,86.670 275.667 C 87.025 277.912,87.582 281.475,87.907 283.583 C 88.232 285.692,88.572 287.792,88.663 288.250 C 88.754 288.708,89.093 290.808,89.416 292.917 C 89.739 295.025,90.304 298.625,90.671 300.917 C 91.039 303.208,91.638 306.996,92.004 309.333 C 92.370 311.671,92.966 315.458,93.329 317.750 C 93.691 320.042,94.285 323.792,94.648 326.083 C 95.271 330.015,95.784 333.263,97.337 343.083 C 99.001 353.604,98.795 352.680,99.578 353.163 C 100.465 353.712,102.290 353.456,102.562 352.744 C 102.611 352.618,103.278 351.668,104.044 350.632 C 105.245 349.010,107.253 346.260,109.539 343.108 C 109.881 342.636,110.427 341.875,110.752 341.417 C 111.077 340.958,111.677 340.133,112.086 339.583 C 112.495 339.033,112.961 338.396,113.122 338.167 C 113.627 337.445,116.293 333.776,116.755 333.167 C 116.998 332.846,117.867 331.646,118.688 330.500 C 119.508 329.354,120.406 328.117,120.684 327.750 C 120.962 327.383,121.561 326.558,122.015 325.917 C 122.470 325.275,123.067 324.450,123.342 324.083 C 123.617 323.717,124.548 322.442,125.410 321.250 C 126.272 320.058,127.175 318.821,127.416 318.500 C 127.658 318.179,128.557 316.942,129.415 315.750 C 130.273 314.558,131.173 313.321,131.415 313.000 C 131.657 312.679,132.559 311.442,133.420 310.250 C 135.930 306.775,137.545 304.544,138.098 303.788 C 140.052 301.116,141.715 298.830,142.066 298.333 C 142.293 298.012,143.177 296.797,144.031 295.633 C 144.885 294.469,146.108 292.788,146.750 291.899 C 148.061 290.083,149.086 288.668,150.029 287.375 C 150.746 286.391,151.646 285.153,152.543 283.917 C 152.875 283.458,153.860 282.108,154.731 280.917 C 155.602 279.725,156.532 278.450,156.798 278.083 C 157.064 277.717,158.061 276.343,159.015 275.032 C 159.969 273.720,161.012 272.281,161.333 271.834 C 163.083 269.395,164.521 267.410,165.559 266.000 C 166.200 265.129,166.940 264.117,167.204 263.750 C 167.468 263.383,168.374 262.141,169.217 260.988 C 170.060 259.836,171.088 258.423,171.500 257.847 C 172.162 256.922,173.352 255.288,175.331 252.583 C 175.666 252.125,176.287 251.262,176.710 250.667 C 177.133 250.071,177.677 249.321,177.919 249.000 C 178.161 248.679,179.060 247.442,179.918 246.250 C 180.776 245.058,181.673 243.821,181.911 243.500 C 183.361 241.548,185.109 239.145,185.550 238.500 C 185.831 238.088,186.106 237.713,186.161 237.667 C 186.216 237.621,186.542 237.171,186.885 236.667 C 187.228 236.162,187.767 235.412,188.083 235.000 C 188.644 234.269,189.101 233.636,190.550 231.583 C 191.330 230.479,192.655 228.677,192.879 228.417 C 192.958 228.325,193.926 226.989,195.030 225.449 C 196.133 223.908,197.062 222.673,197.093 222.704 C 197.124 222.735,197.041 223.771,196.909 225.005 C 196.776 226.240,196.371 230.175,196.007 233.750 C 195.644 237.325,195.046 243.213,194.677 246.833 C 194.309 250.454,193.702 256.417,193.329 260.083 C 192.957 263.750,192.358 269.637,191.998 273.167 C 191.639 276.696,191.040 282.583,190.667 286.250 C 190.293 289.917,189.690 295.842,189.326 299.417 C 188.962 302.992,188.367 308.842,188.003 312.417 C 187.639 315.992,187.032 321.917,186.655 325.583 C 185.443 337.349,184.963 336.234,191.667 337.243 C 195.468 337.816,199.265 338.410,208.250 339.838 C 212.518 340.517,216.715 341.183,224.917 342.482 C 227.208 342.844,231.033 343.451,233.417 343.830 C 237.422 344.467,241.727 345.148,248.667 346.241 C 250.179 346.479,252.092 346.785,252.917 346.921 C 253.742 347.056,256.142 347.430,258.250 347.751 C 260.358 348.072,262.478 348.415,262.960 348.513 C 263.442 348.611,265.542 348.953,267.626 349.274 C 271.982 349.944,277.761 350.853,283.750 351.810 C 286.042 352.177,289.867 352.779,292.250 353.149 C 294.633 353.519,296.938 353.890,297.371 353.972 C 299.222 354.325,300.507 353.303,300.286 351.654 C 300.216 351.134,298.553 348.486,297.991 348.000 C 297.938 347.954,297.640 347.542,297.329 347.083 C 297.018 346.625,296.701 346.175,296.624 346.083 C 296.548 345.992,295.997 345.242,295.400 344.417 C 294.804 343.592,294.222 342.802,294.108 342.663 C 293.995 342.523,293.647 342.036,293.337 341.580 C 293.026 341.123,292.725 340.712,292.667 340.667 C 292.609 340.621,292.307 340.208,291.996 339.750 C 291.685 339.292,291.202 338.613,290.923 338.242 C 290.645 337.870,290.286 337.383,290.127 337.158 C 289.739 336.612,287.887 334.063,287.348 333.334 C 287.111 333.013,286.738 332.488,286.521 332.167 C 286.303 331.846,286.072 331.546,286.008 331.500 C 285.944 331.454,285.579 330.967,285.197 330.417 C 284.815 329.867,284.202 329.004,283.836 328.500 C 283.470 327.996,282.946 327.263,282.672 326.871 C 282.397 326.480,282.095 326.067,282.000 325.955 C 281.905 325.842,281.366 325.112,280.803 324.333 C 280.240 323.554,279.585 322.654,279.348 322.334 C 279.111 322.013,278.748 321.505,278.543 321.203 C 278.337 320.901,278.092 320.564,277.998 320.452 C 277.719 320.120,276.210 318.047,276.058 317.786 C 275.980 317.654,275.715 317.291,275.468 316.981 C 275.222 316.671,274.569 315.779,274.018 315.000 C 273.467 314.221,272.860 313.385,272.670 313.143 C 272.264 312.626,271.855 312.061,270.848 310.629 C 270.091 309.552,269.115 308.217,268.861 307.909 C 268.781 307.813,268.431 307.329,268.083 306.833 C 267.735 306.338,267.385 305.854,267.306 305.758 C 267.079 305.485,265.605 303.463,265.294 303.000 C 264.908 302.425,262.387 298.962,262.177 298.718 C 262.083 298.609,261.798 298.225,261.545 297.864 C 260.897 296.943,259.201 294.588,258.465 293.589 C 258.125 293.128,257.620 292.430,257.343 292.038 C 257.066 291.647,256.758 291.234,256.658 291.121 C 256.559 291.009,255.976 290.204,255.363 289.333 C 254.099 287.537,252.820 285.790,252.678 285.667 C 252.625 285.621,252.359 285.246,252.085 284.833 C 251.812 284.421,251.392 283.821,251.152 283.500 C 250.528 282.667,247.750 278.859,247.261 278.167 C 246.727 277.411,243.819 273.423,243.251 272.667 C 243.010 272.346,242.466 271.596,242.043 271.000 C 241.198 269.810,240.531 268.891,239.138 267.000 C 238.631 266.313,237.431 264.662,236.471 263.333 C 235.510 262.004,234.071 260.017,233.272 258.917 C 232.473 257.817,231.248 256.129,230.550 255.167 C 229.852 254.204,229.005 253.042,228.667 252.583 C 228.329 252.125,227.481 250.963,226.782 250.000 C 226.083 249.037,224.830 247.313,223.998 246.167 C 223.165 245.021,222.297 243.821,222.069 243.500 C 221.840 243.179,220.968 241.979,220.130 240.833 C 219.293 239.688,218.302 238.330,217.929 237.817 C 215.667 234.706,214.693 233.359,213.357 231.500 C 212.534 230.354,211.661 229.154,211.418 228.833 C 210.620 227.780,208.264 224.557,207.583 223.588 C 207.217 223.066,206.558 222.157,206.119 221.569 L 205.321 220.499 206.286 220.939 C 206.816 221.182,207.963 221.678,208.833 222.042 C 209.704 222.407,210.492 222.765,210.583 222.838 C 210.675 222.911,211.350 223.209,212.083 223.500 C 212.817 223.791,213.492 224.086,213.583 224.155 C 213.675 224.225,214.387 224.550,215.167 224.878 C 215.946 225.206,217.333 225.808,218.250 226.216 C 219.167 226.624,221.154 227.503,222.667 228.168 C 224.179 228.834,226.092 229.677,226.917 230.042 C 227.742 230.406,228.979 230.948,229.667 231.246 C 230.354 231.544,231.420 232.023,232.035 232.310 C 232.650 232.598,233.196 232.833,233.249 232.833 C 233.332 232.833,234.855 233.505,237.417 234.673 C 237.783 234.840,239.358 235.536,240.917 236.220 C 242.475 236.904,245.461 238.222,247.553 239.149 C 249.645 240.075,251.383 240.833,251.416 240.833 C 251.449 240.833,252.062 241.104,252.779 241.435 C 253.495 241.766,254.457 242.185,254.915 242.366 C 255.374 242.546,255.824 242.757,255.916 242.833 C 256.008 242.909,256.683 243.209,257.417 243.500 C 258.150 243.791,258.825 244.086,258.917 244.156 C 259.008 244.226,259.683 244.528,260.417 244.827 C 261.150 245.126,261.825 245.426,261.917 245.494 C 262.008 245.561,262.678 245.860,263.405 246.159 C 264.132 246.457,264.844 246.768,264.988 246.849 C 265.132 246.931,266.487 247.532,268.000 248.186 C 269.512 248.840,271.500 249.710,272.417 250.119 C 273.333 250.528,274.510 251.042,275.031 251.262 C 275.552 251.481,276.489 251.895,277.114 252.182 C 277.739 252.468,278.625 252.851,279.083 253.032 C 279.541 253.213,279.991 253.423,280.083 253.499 C 280.175 253.575,280.850 253.876,281.583 254.167 C 282.317 254.458,282.992 254.753,283.083 254.823 C 283.175 254.892,283.845 255.194,284.572 255.492 C 285.299 255.790,286.011 256.100,286.155 256.181 C 286.299 256.261,287.992 257.010,289.917 257.845 C 291.842 258.680,293.904 259.590,294.500 259.867 C 295.096 260.143,296.220 260.629,296.997 260.947 C 297.775 261.264,298.488 261.587,298.581 261.664 C 298.674 261.742,299.269 262.000,299.904 262.239 C 300.538 262.478,301.138 262.740,301.237 262.822 C 301.336 262.904,301.997 263.201,302.707 263.483 C 303.417 263.765,304.129 264.072,304.290 264.166 C 305.745 265.013,308.164 265.905,309.024 265.910 C 310.252 265.919,310.451 265.727,311.612 263.425 C 312.122 262.412,313.121 260.458,313.832 259.083 C 314.543 257.708,316.418 254.033,318.000 250.917 C 319.581 247.800,321.718 243.600,322.750 241.583 C 323.781 239.567,325.657 235.892,326.918 233.417 C 329.139 229.056,331.696 224.045,335.931 215.750 C 337.054 213.550,338.905 209.912,340.044 207.667 C 341.183 205.421,343.074 201.708,344.246 199.417 C 346.668 194.681,349.681 188.773,352.958 182.333 C 356.306 175.754,359.235 170.022,360.501 167.572 C 362.068 164.541,362.147 163.740,360.976 162.755 C 360.193 162.097,358.278 162.406,354.833 163.747 C 354.512 163.872,352.787 164.441,351.000 165.012 C 349.212 165.583,346.741 166.376,345.508 166.775 C 344.275 167.174,343.199 167.500,343.117 167.500 C 343.034 167.500,342.731 167.605,342.442 167.732 C 342.153 167.860,340.454 168.430,338.667 168.998 C 335.047 170.148,334.564 170.307,334.083 170.503 C 333.900 170.578,332.287 171.104,330.500 171.672 C 328.712 172.241,326.500 172.949,325.583 173.247 C 324.667 173.545,322.567 174.218,320.917 174.743 C 319.267 175.268,317.654 175.798,317.333 175.920 C 317.012 176.042,315.175 176.640,313.250 177.249 C 311.325 177.858,309.487 178.458,309.167 178.584 C 308.846 178.709,308.208 178.924,307.750 179.061 C 306.806 179.343,297.551 182.313,297.167 182.457 C 297.029 182.508,296.842 182.571,296.750 182.595 C 296.658 182.620,295.346 183.049,293.833 183.549 C 292.321 184.048,289.058 185.111,286.583 185.912 C 284.108 186.712,281.333 187.615,280.417 187.919 C 279.500 188.223,277.287 188.934,275.500 189.500 C 273.712 190.065,272.100 190.592,271.917 190.670 C 271.351 190.912,264.834 193.000,264.645 193.000 C 264.547 193.000,264.231 193.103,263.942 193.228 C 263.456 193.440,261.371 194.123,249.083 198.094 C 246.608 198.894,243.046 200.054,241.167 200.673 C 239.287 201.291,236.287 202.260,234.500 202.825 C 232.713 203.390,231.100 203.916,230.917 203.994 C 230.504 204.169,221.681 207.026,220.083 207.502 C 219.442 207.693,218.767 207.914,218.583 207.993 C 218.094 208.205,211.441 210.336,211.275 210.335 C 211.197 210.334,210.897 210.437,210.609 210.564 C 208.811 211.354,206.013 212.088,206.399 211.668 C 206.610 211.438,207.747 210.162,208.925 208.833 C 211.681 205.724,211.982 205.387,212.583 204.747 C 212.858 204.454,213.533 203.706,214.083 203.083 C 214.633 202.461,215.159 201.869,215.251 201.768 C 215.343 201.666,215.980 200.948,216.667 200.171 C 217.354 199.394,217.992 198.676,218.083 198.575 C 218.175 198.474,218.700 197.881,219.250 197.257 C 219.800 196.633,220.475 195.879,220.750 195.583 C 221.025 195.286,221.555 194.715,221.927 194.314 C 222.299 193.912,223.497 192.571,224.588 191.333 C 225.680 190.096,227.553 187.996,228.750 186.667 C 229.948 185.338,232.033 182.998,233.384 181.468 C 234.735 179.938,236.120 178.391,236.462 178.030 C 236.804 177.669,237.533 176.867,238.083 176.246 C 238.633 175.626,239.160 175.036,239.254 174.934 C 239.348 174.833,240.021 174.075,240.749 173.250 C 243.112 170.575,243.131 170.553,244.650 168.917 C 244.990 168.550,246.463 166.900,247.924 165.250 C 249.384 163.600,251.924 160.750,253.567 158.917 C 255.211 157.083,257.049 155.025,257.653 154.343 C 258.256 153.660,258.975 152.865,259.250 152.575 C 259.525 152.285,260.200 151.541,260.750 150.922 C 261.300 150.302,261.900 149.629,262.083 149.426 C 262.267 149.224,262.867 148.546,263.417 147.920 C 264.857 146.282,264.816 146.328,266.000 145.008 C 266.596 144.344,267.271 143.602,267.501 143.359 C 267.730 143.116,269.718 140.898,271.917 138.430 C 274.117 135.963,277.065 132.663,278.468 131.097 C 281.459 127.759,281.775 127.149,281.141 125.947 C 280.822 125.343,201.536 46.172,201.074 45.996 C 200.446 45.758,199.984 45.795,199.331 46.139 M238.417 89.000 L 274.416 125.000 238.375 125.000 L 202.333 125.000 202.333 89.000 C 202.333 69.200,202.352 53.000,202.375 53.000 C 202.398 53.000,218.617 69.200,238.417 89.000 M135.102 120.937 C 134.417 123.034,132.908 127.675,131.750 131.250 C 130.591 134.825,129.091 139.438,128.417 141.500 C 127.742 143.563,126.242 148.175,125.084 151.750 C 123.926 155.325,122.426 159.938,121.752 162.000 C 121.078 164.063,119.205 169.837,117.590 174.833 C 114.226 185.237,114.193 185.333,113.981 185.333 C 113.828 185.333,109.680 183.998,96.083 179.574 C 92.508 178.411,87.783 176.878,85.583 176.166 C 83.383 175.455,78.808 173.972,75.417 172.869 C 61.323 168.289,56.966 166.875,51.542 165.120 C 48.402 164.104,45.833 163.224,45.833 163.165 C 45.833 163.105,49.640 161.120,54.292 158.753 C 62.437 154.609,64.796 153.406,73.333 149.043 C 75.487 147.942,80.175 145.560,83.750 143.750 C 87.325 141.940,91.000 140.065,91.917 139.584 C 92.833 139.103,97.033 136.966,101.250 134.833 C 105.467 132.701,109.592 130.601,110.417 130.166 C 111.242 129.731,115.217 127.701,119.250 125.655 C 123.283 123.609,128.757 120.829,131.414 119.478 C 134.071 118.128,136.268 117.045,136.296 117.074 C 136.324 117.102,135.787 118.840,135.102 120.937 M142.921 122.333 C 143.949 124.121,145.633 127.046,146.664 128.833 C 147.694 130.621,149.701 134.108,151.124 136.583 C 152.548 139.058,154.404 142.283,155.249 143.750 C 156.094 145.217,157.670 147.954,158.751 149.833 C 159.832 151.712,161.257 154.188,161.919 155.333 C 162.580 156.479,164.004 158.954,165.083 160.833 C 166.162 162.712,167.610 165.225,168.300 166.417 C 172.318 173.353,174.470 177.167,174.367 177.167 C 174.303 177.168,173.549 177.282,172.692 177.421 C 171.835 177.560,169.360 177.937,167.192 178.259 C 159.301 179.433,154.312 180.175,149.333 180.917 C 146.537 181.334,142.487 181.934,140.333 182.251 C 138.179 182.568,134.129 183.167,131.333 183.584 C 128.537 184.000,124.712 184.565,122.833 184.840 C 120.954 185.115,119.178 185.383,118.885 185.436 L 118.354 185.533 118.661 184.558 C 118.830 184.022,119.604 181.633,120.381 179.250 C 121.158 176.867,122.657 172.254,123.713 169.000 C 124.768 165.746,126.549 160.271,127.670 156.833 C 128.790 153.396,130.327 148.671,131.084 146.333 C 131.841 143.996,133.326 139.421,134.384 136.167 C 135.442 132.912,137.183 127.550,138.253 124.251 C 139.322 120.951,140.236 118.189,140.284 118.112 C 140.386 117.946,140.507 118.139,142.921 122.333 M274.226 129.542 C 273.659 130.150,271.080 133.003,258.000 147.497 C 253.004 153.033,247.454 159.182,245.667 161.163 C 243.879 163.144,240.357 167.048,237.840 169.840 C 230.292 178.212,228.935 179.668,228.803 179.536 C 228.583 179.316,203.667 129.293,203.667 129.071 C 203.667 129.032,219.656 129.000,239.199 129.000 L 274.732 129.000 274.226 129.542 M206.483 143.875 C 208.671 148.298,213.957 158.918,218.230 167.474 C 222.504 176.031,226.000 183.134,226.000 183.260 C 226.000 183.385,224.071 185.646,221.713 188.285 C 210.093 201.291,203.083 209.123,202.727 209.496 L 202.333 209.909 202.333 172.871 C 202.333 152.500,202.372 135.833,202.420 135.833 C 202.467 135.833,204.296 139.452,206.483 143.875 M355.500 168.101 C 355.500 168.189,353.310 172.498,344.668 189.417 C 343.591 191.525,341.640 195.350,340.333 197.917 C 339.026 200.483,337.076 204.308,336.001 206.417 C 334.925 208.525,332.974 212.350,331.667 214.917 C 330.359 217.483,328.521 221.083,327.583 222.917 C 326.644 224.750,324.582 228.800,322.999 231.917 C 321.417 235.033,319.544 238.708,318.837 240.083 C 318.130 241.458,315.727 246.164,313.497 250.541 C 311.267 254.917,309.405 258.461,309.360 258.416 C 309.315 258.371,308.774 256.777,308.158 254.875 C 307.542 252.973,306.122 248.604,305.002 245.167 C 303.883 241.729,302.066 236.142,300.965 232.750 C 299.865 229.358,298.344 224.671,297.585 222.333 C 296.827 219.996,295.327 215.383,294.253 212.083 C 293.179 208.783,291.679 204.171,290.920 201.833 C 290.161 199.496,289.006 195.941,288.353 193.933 C 286.950 189.616,287.007 190.099,287.875 189.849 C 288.265 189.736,291.358 188.744,294.750 187.643 C 298.142 186.543,303.804 184.705,307.333 183.560 C 310.862 182.415,315.438 180.926,317.500 180.251 C 319.563 179.576,324.175 178.075,327.750 176.916 C 341.148 172.573,346.703 170.766,350.833 169.408 C 355.004 168.037,355.500 167.898,355.500 168.101 M178.862 184.000 C 179.852 185.696,180.880 187.458,181.148 187.917 C 181.416 188.375,182.549 190.325,183.667 192.250 C 185.828 195.971,186.731 197.522,187.597 199.000 C 187.893 199.504,188.787 201.042,189.585 202.417 C 190.382 203.792,191.277 205.329,191.573 205.833 C 193.733 209.512,194.863 211.526,194.803 211.586 C 194.764 211.625,191.961 210.753,188.575 209.649 C 180.531 207.026,171.269 204.018,163.500 201.506 C 160.063 200.394,156.725 199.309,156.083 199.095 C 154.865 198.688,153.719 198.315,143.583 195.025 C 128.604 190.163,124.349 188.763,124.400 188.712 C 124.429 188.682,125.946 188.437,127.769 188.168 C 131.102 187.677,136.488 186.876,144.667 185.656 C 147.096 185.294,151.146 184.693,153.667 184.320 C 156.188 183.947,160.200 183.353,162.583 183.000 C 164.967 182.647,169.017 182.052,171.583 181.678 C 174.150 181.304,176.325 180.966,176.417 180.927 C 176.870 180.734,177.197 181.146,178.862 184.000 M285.493 198.167 C 286.428 201.054,287.744 205.104,288.417 207.167 C 289.091 209.229,290.590 213.842,291.749 217.417 C 292.908 220.992,294.370 225.492,294.999 227.417 C 295.628 229.342,297.092 233.842,298.251 237.417 C 303.644 254.045,304.559 256.862,305.082 258.458 C 305.390 259.398,305.617 260.167,305.587 260.167 C 305.556 260.167,305.018 259.935,304.391 259.651 C 303.763 259.367,300.850 258.063,297.917 256.753 C 292.784 254.461,287.265 251.993,282.167 249.711 C 280.837 249.116,277.688 247.709,275.167 246.584 C 261.983 240.702,257.756 238.814,252.583 236.499 C 249.467 235.105,246.063 233.583,245.019 233.119 L 243.121 232.275 245.185 230.271 C 246.321 229.169,252.950 222.673,259.917 215.835 C 282.259 193.907,283.552 192.652,283.674 192.786 C 283.740 192.858,284.558 195.279,285.493 198.167 M273.917 196.466 C 272.267 198.097,267.167 203.102,262.585 207.590 C 258.002 212.078,252.227 217.741,249.752 220.173 C 240.060 229.697,238.963 230.748,238.777 230.698 C 238.560 230.640,236.709 229.831,230.500 227.083 C 228.162 226.048,224.675 224.509,222.750 223.662 C 220.825 222.815,217.338 221.278,215.000 220.246 C 212.662 219.215,209.775 217.942,208.583 217.418 C 207.392 216.894,206.392 216.442,206.361 216.413 C 206.308 216.364,211.217 214.749,224.917 210.309 C 228.308 209.210,232.771 207.759,234.833 207.085 C 236.896 206.411,240.833 205.133,243.583 204.247 C 246.333 203.360,249.108 202.458,249.750 202.242 C 250.392 202.026,253.804 200.914,257.333 199.771 C 271.509 195.179,276.258 193.639,276.417 193.584 C 276.508 193.552,276.658 193.521,276.750 193.514 C 276.842 193.508,275.567 194.836,273.917 196.466 M193.032 221.125 C 192.313 222.110,187.913 228.167,183.253 234.583 C 178.593 241.000,174.178 247.075,173.441 248.083 C 172.704 249.092,171.797 250.337,171.425 250.852 C 171.054 251.366,170.183 252.566,169.489 253.518 C 167.098 256.802,164.746 260.043,163.351 261.977 C 162.582 263.044,161.563 264.442,161.087 265.083 C 160.611 265.725,158.141 269.118,155.597 272.624 C 150.802 279.232,150.560 279.536,150.735 278.729 C 150.793 278.466,151.209 276.037,151.661 273.333 C 152.112 270.629,153.089 264.817,153.832 260.417 C 154.575 256.017,155.362 251.329,155.580 250.000 C 157.906 235.857,159.456 226.976,159.627 226.810 C 159.695 226.744,161.025 226.422,162.583 226.094 C 164.142 225.766,165.754 225.417,166.167 225.318 C 166.579 225.220,168.267 224.850,169.917 224.497 C 171.567 224.144,174.304 223.555,176.000 223.189 C 181.462 222.008,185.343 221.170,188.583 220.474 C 190.325 220.100,192.162 219.698,192.667 219.581 C 194.486 219.158,194.482 219.138,193.032 221.125 M217.586 244.417 C 226.369 256.517,233.943 266.942,234.417 267.583 C 234.891 268.225,236.391 270.287,237.750 272.167 C 239.110 274.046,240.469 275.921,240.772 276.333 C 243.353 279.849,244.949 282.093,244.904 282.144 C 244.875 282.178,243.741 281.623,242.384 280.911 C 239.728 279.518,234.281 276.680,230.250 274.588 C 228.875 273.874,227.150 272.972,226.417 272.582 C 225.683 272.192,223.808 271.214,222.250 270.408 C 220.692 269.602,218.454 268.431,217.278 267.805 C 216.101 267.179,215.110 266.667,215.075 266.667 C 215.039 266.667,213.827 266.040,212.380 265.275 C 209.873 263.948,206.745 262.316,200.667 259.165 C 198.334 257.955,197.909 257.676,197.869 257.328 C 197.823 256.936,198.169 253.341,199.658 238.750 C 200.730 228.240,201.333 222.276,201.333 222.185 C 201.333 222.028,201.557 222.335,217.586 244.417 M155.089 228.708 C 154.933 229.618,153.220 239.808,151.831 248.083 C 150.359 256.852,146.449 280.081,146.044 282.458 C 145.863 283.522,145.726 283.955,145.599 283.857 C 145.499 283.779,143.504 282.330,141.167 280.638 C 135.508 276.542,97.978 249.285,96.917 248.501 C 96.458 248.163,94.340 246.623,92.210 245.080 C 90.080 243.537,88.369 242.242,88.407 242.204 C 88.446 242.165,89.514 241.915,90.780 241.647 C 92.047 241.379,94.471 240.865,96.167 240.505 C 104.898 238.650,107.450 238.110,109.583 237.666 C 110.867 237.400,113.529 236.838,115.500 236.418 C 117.471 235.999,120.321 235.398,121.833 235.083 C 123.346 234.769,126.196 234.168,128.167 233.748 C 130.137 233.329,132.800 232.767,134.083 232.500 C 135.367 232.233,138.217 231.634,140.417 231.169 C 142.617 230.703,145.879 230.014,147.667 229.637 C 149.454 229.261,151.704 228.781,152.667 228.572 C 155.130 228.037,155.203 228.041,155.089 228.708 M93.309 250.869 C 99.094 255.066,132.712 279.485,138.000 283.330 C 138.871 283.963,140.633 285.243,141.917 286.175 C 143.200 287.106,144.243 287.955,144.233 288.061 C 144.224 288.168,142.230 290.992,139.801 294.336 C 109.182 336.500,102.432 345.782,102.255 345.970 C 102.039 346.200,102.095 346.512,100.151 334.250 C 99.788 331.958,99.192 328.208,98.828 325.917 C 98.463 323.625,97.864 319.837,97.495 317.500 C 97.127 315.162,96.564 311.600,96.245 309.583 C 95.927 307.567,95.328 303.779,94.916 301.167 C 94.503 298.554,93.903 294.767,93.582 292.750 C 93.262 290.733,92.662 286.946,92.249 284.333 C 91.836 281.721,91.236 277.933,90.916 275.917 C 90.595 273.900,89.995 270.112,89.582 267.500 C 88.721 262.047,87.983 257.401,86.916 250.716 C 86.085 245.501,86.129 245.833,86.268 245.833 C 86.323 245.833,89.492 248.099,93.309 250.869 M201.086 263.897 C 202.826 264.803,205.787 266.350,207.667 267.333 C 209.546 268.317,212.883 270.060,215.083 271.207 C 217.283 272.354,220.808 274.192,222.917 275.291 C 225.025 276.391,228.588 278.248,230.833 279.417 C 233.079 280.587,236.454 282.349,238.333 283.334 C 240.213 284.318,243.117 285.826,244.788 286.686 C 246.460 287.546,247.810 288.303,247.788 288.369 C 247.767 288.434,242.012 292.656,235.000 297.752 C 227.987 302.847,221.762 307.375,221.167 307.815 C 220.571 308.254,218.958 309.425,217.583 310.416 C 216.208 311.407,209.627 316.183,202.959 321.030 C 196.290 325.878,190.735 329.881,190.614 329.928 C 190.438 329.996,190.453 329.469,190.695 327.214 C 190.860 325.676,191.294 321.604,191.660 318.167 C 192.025 314.729,192.625 309.104,192.991 305.667 C 195.436 282.745,196.151 276.006,196.914 268.667 C 197.550 262.553,197.610 262.113,197.801 262.196 C 197.867 262.226,199.346 262.991,201.086 263.897 M265.373 310.211 C 273.049 320.774,282.547 333.842,286.479 339.250 C 290.412 344.658,293.611 349.104,293.588 349.129 C 293.566 349.154,292.430 348.991,291.065 348.767 C 289.700 348.543,286.371 348.011,283.667 347.586 C 280.962 347.161,277.175 346.561,275.250 346.252 C 273.325 345.944,269.537 345.343,266.833 344.916 C 255.984 343.207,247.464 341.857,241.500 340.905 C 239.529 340.591,235.779 339.996,233.167 339.583 C 230.554 339.171,226.767 338.571,224.750 338.251 C 222.733 337.930,218.946 337.330,216.333 336.918 C 209.809 335.887,205.082 335.137,199.583 334.261 C 197.017 333.852,194.523 333.466,194.042 333.404 C 193.560 333.341,193.171 333.244,193.176 333.187 C 193.181 333.130,197.429 330.008,202.617 326.250 C 207.805 322.492,212.667 318.967,213.421 318.417 C 214.176 317.867,215.496 316.909,216.355 316.288 C 217.214 315.667,225.379 309.728,234.500 303.090 C 243.621 296.452,251.158 291.017,251.250 291.013 C 251.342 291.009,257.697 299.648,265.373 310.211 " stroke="none" fill="#343434" fill-rule="evenodd"></path><path id="path1" d="M138.843 122.865 C 138.004 125.460,137.141 128.108,136.926 128.750 C 136.710 129.392,135.771 132.279,134.839 135.167 C 133.906 138.054,132.964 140.942,132.746 141.583 C 132.527 142.225,131.587 145.112,130.657 148.000 C 129.728 150.887,128.791 153.775,128.575 154.417 C 128.235 155.430,127.235 158.516,123.308 170.667 C 122.849 172.088,122.330 173.662,122.154 174.167 C 121.869 174.985,120.275 179.894,118.996 183.891 L 118.524 185.366 119.137 185.287 C 119.707 185.213,121.520 184.944,133.417 183.166 C 135.892 182.796,139.942 182.192,142.417 181.825 C 144.892 181.458,148.942 180.856,151.417 180.487 C 153.892 180.118,157.904 179.522,160.333 179.163 C 162.762 178.804,166.775 178.210,169.250 177.843 C 171.725 177.476,173.844 177.174,173.958 177.172 C 174.378 177.162,174.541 177.470,169.699 169.083 C 169.011 167.892,168.170 166.429,167.831 165.833 C 167.087 164.528,165.062 161.010,163.800 158.833 C 163.296 157.962,161.697 155.188,160.247 152.667 C 158.797 150.146,157.349 147.633,157.030 147.083 C 156.711 146.533,156.173 145.596,155.834 145.000 C 155.496 144.404,154.655 142.942,153.967 141.750 C 153.278 140.558,151.853 138.083,150.800 136.250 C 149.747 134.417,148.150 131.642,147.251 130.083 C 145.025 126.224,141.927 120.834,141.121 119.417 C 140.756 118.775,140.437 118.227,140.413 118.198 C 140.389 118.170,139.683 120.270,138.843 122.865 M203.916 129.333 C 203.974 129.515,209.612 140.897,216.445 154.624 L 228.869 179.583 229.626 178.750 C 230.043 178.292,232.038 176.079,234.061 173.833 C 236.083 171.588,238.086 169.375,238.510 168.917 C 238.935 168.458,241.106 166.058,243.335 163.583 C 245.564 161.108,249.719 156.501,252.569 153.345 C 255.418 150.189,259.241 145.952,261.063 143.929 C 262.885 141.907,264.994 139.577,265.750 138.751 C 266.505 137.926,268.606 135.600,270.418 133.583 C 272.229 131.567,273.903 129.710,274.137 129.458 L 274.562 129.000 239.187 129.000 C 203.916 129.000,203.811 129.001,203.916 129.333 M202.333 172.833 C 202.333 193.092,202.364 209.667,202.401 209.667 C 202.461 209.667,211.887 199.170,222.645 187.124 L 226.033 183.331 222.285 175.790 C 209.729 150.526,202.472 136.000,202.407 136.000 C 202.367 136.000,202.333 152.575,202.333 172.833 M174.167 181.333 C 173.112 181.499,170.450 181.903,168.250 182.230 C 166.050 182.557,161.962 183.166,159.167 183.584 C 142.679 186.043,135.377 187.129,130.583 187.835 C 128.108 188.199,125.746 188.558,125.333 188.633 L 124.583 188.768 125.917 189.207 C 126.650 189.448,130.063 190.556,133.500 191.668 C 136.938 192.780,141.438 194.242,143.500 194.916 C 147.084 196.089,152.595 197.879,166.333 202.332 C 169.771 203.446,174.271 204.910,176.333 205.584 C 178.396 206.259,182.896 207.721,186.333 208.833 C 189.771 209.945,193.028 210.999,193.571 211.176 C 194.981 211.635,195.269 212.318,190.863 204.775 C 190.443 204.055,187.169 198.430,183.589 192.275 C 177.352 181.555,177.057 181.082,176.581 181.057 C 176.307 181.042,175.221 181.166,174.167 181.333 M282.167 194.190 C 281.387 194.936,277.188 199.045,272.833 203.322 C 268.479 207.599,260.065 215.857,254.135 221.674 C 244.324 231.299,243.387 232.264,243.719 232.407 C 243.919 232.494,244.782 232.887,245.635 233.282 C 246.488 233.677,247.224 234.000,247.270 234.000 C 247.316 234.000,247.991 234.300,248.770 234.667 C 249.549 235.033,250.214 235.333,250.248 235.333 C 250.282 235.333,250.784 235.552,251.363 235.819 C 252.777 236.470,254.128 237.079,255.833 237.832 C 256.612 238.176,259.350 239.396,261.917 240.544 C 264.483 241.691,269.358 243.867,272.750 245.379 C 276.142 246.892,280.717 248.936,282.917 249.923 C 285.117 250.909,287.629 252.034,288.500 252.422 C 290.205 253.182,298.522 256.899,301.250 258.119 C 304.371 259.516,305.516 259.994,305.446 259.872 C 305.408 259.805,304.689 257.612,303.847 255.000 C 303.006 252.387,302.103 249.612,301.839 248.833 C 301.576 248.054,301.022 246.367,300.609 245.083 C 298.621 238.904,295.609 229.626,295.253 228.583 C 295.034 227.942,294.131 225.167,293.246 222.417 C 290.975 215.363,289.228 209.987,288.670 208.333 C 288.407 207.554,287.467 204.667,286.581 201.917 C 284.721 196.142,283.637 192.833,283.605 192.834 C 283.593 192.834,282.946 193.445,282.167 194.190 M271.250 195.328 C 268.500 196.231,262.275 198.254,257.417 199.825 C 252.558 201.396,248.058 202.861,247.417 203.081 C 246.775 203.301,242.275 204.765,237.417 206.334 C 232.558 207.903,226.783 209.777,224.583 210.499 C 221.097 211.641,209.570 215.380,207.275 216.113 L 206.466 216.371 207.191 216.700 C 207.887 217.016,211.162 218.464,218.500 221.700 C 220.379 222.529,223.867 224.068,226.250 225.121 C 228.633 226.173,231.858 227.597,233.417 228.284 C 234.975 228.972,236.837 229.797,237.555 230.116 L 238.861 230.698 240.222 229.396 C 240.971 228.680,243.377 226.329,245.568 224.172 C 247.760 222.015,249.862 219.950,250.238 219.583 C 261.989 208.148,276.619 193.671,276.417 193.680 C 276.325 193.684,274.000 194.426,271.250 195.328 M192.250 219.746 C 190.572 220.119,187.515 220.784,180.375 222.329 C 178.244 222.790,174.756 223.545,172.625 224.008 C 170.494 224.471,168.075 224.992,167.250 225.167 C 163.430 225.975,159.628 226.817,159.584 226.864 C 159.557 226.893,158.850 231.004,158.012 236.000 C 156.305 246.175,153.330 263.876,151.823 272.824 C 151.275 276.073,150.847 278.783,150.872 278.847 C 150.897 278.910,154.817 273.592,159.583 267.029 C 164.350 260.465,170.132 252.505,172.432 249.339 C 188.220 227.609,193.963 219.695,194.067 219.526 C 194.208 219.298,194.334 219.283,192.250 219.746 M201.279 223.542 C 201.222 224.115,200.876 227.546,200.509 231.167 C 200.143 234.787,199.578 240.375,199.254 243.583 C 198.930 246.792,198.475 251.244,198.241 253.478 C 198.008 255.711,197.839 257.555,197.867 257.575 C 198.012 257.682,201.243 259.384,205.000 261.333 C 207.338 262.546,209.925 263.894,210.750 264.329 C 211.575 264.764,213.450 265.741,214.917 266.500 C 216.383 267.259,219.121 268.684,221.000 269.668 C 224.117 271.300,231.752 275.282,241.000 280.101 C 242.971 281.128,244.610 281.943,244.642 281.912 C 244.674 281.881,243.919 280.782,242.964 279.469 C 229.680 261.216,202.151 223.307,201.925 222.958 C 201.493 222.291,201.393 222.381,201.279 223.542 M151.917 228.862 C 150.267 229.211,147.492 229.796,145.750 230.162 C 144.008 230.528,140.971 231.168,139.000 231.585 C 137.029 232.001,134.179 232.601,132.667 232.918 C 131.154 233.234,128.492 233.795,126.750 234.165 C 125.008 234.534,122.121 235.143,120.333 235.519 C 118.546 235.894,115.733 236.486,114.083 236.833 C 112.433 237.181,109.621 237.773,107.833 238.149 C 106.046 238.524,103.196 239.128,101.500 239.490 C 97.315 240.384,90.637 241.802,89.434 242.053 L 88.451 242.258 89.684 243.124 C 90.362 243.600,91.742 244.593,92.750 245.331 C 93.758 246.069,94.996 246.969,95.500 247.330 C 96.004 247.691,97.218 248.570,98.197 249.285 C 99.177 249.999,100.902 251.251,102.031 252.066 C 103.160 252.882,104.533 253.880,105.083 254.284 C 109.272 257.365,111.143 258.730,111.508 258.970 C 111.741 259.124,116.428 262.519,121.924 266.515 C 143.193 281.979,145.558 283.675,145.680 283.548 C 145.750 283.476,146.005 282.179,146.247 280.667 C 146.489 279.154,146.839 277.054,147.025 276.000 C 147.211 274.946,147.615 272.546,147.924 270.667 C 148.232 268.787,148.828 265.225,149.248 262.750 C 149.668 260.275,150.267 256.712,150.579 254.833 C 150.891 252.954,151.492 249.392,151.914 246.917 C 152.336 244.442,152.935 240.879,153.246 239.000 C 153.556 237.121,154.080 233.978,154.410 232.016 C 154.741 230.054,154.990 228.399,154.964 228.338 C 154.938 228.277,153.567 228.513,151.917 228.862 M197.667 262.542 C 197.666 262.907,196.843 270.866,196.670 272.167 C 196.579 272.854,196.278 275.704,196.001 278.500 C 195.724 281.296,195.461 283.771,195.417 284.000 C 195.373 284.229,195.072 287.042,194.749 290.250 C 194.426 293.458,194.127 296.271,194.084 296.500 C 194.041 296.729,193.741 299.542,193.418 302.750 C 193.095 305.958,192.795 308.771,192.751 309.000 C 192.706 309.229,192.445 311.704,192.170 314.500 C 191.896 317.296,191.590 320.183,191.491 320.917 C 191.255 322.667,190.537 329.736,190.588 329.800 C 190.610 329.828,195.343 326.421,201.106 322.229 C 206.868 318.038,211.883 314.395,212.250 314.133 C 213.651 313.134,214.811 312.296,216.524 311.045 C 217.500 310.333,220.050 308.479,222.191 306.926 C 224.332 305.372,226.608 303.716,227.250 303.244 C 227.892 302.773,230.217 301.087,232.417 299.498 C 234.617 297.909,236.942 296.222,237.583 295.749 C 238.225 295.275,240.287 293.776,242.167 292.417 C 245.710 289.855,247.317 288.683,247.556 288.486 C 247.689 288.377,245.327 287.099,236.333 282.415 C 234.088 281.245,230.637 279.446,228.667 278.417 C 226.696 277.388,223.246 275.588,221.000 274.418 C 218.754 273.248,215.229 271.410,213.167 270.334 C 207.491 267.373,205.457 266.314,203.083 265.083 C 201.892 264.465,200.228 263.594,199.386 263.147 C 197.705 262.254,197.667 262.240,197.667 262.542 " stroke="none" fill="#e1e1e1" fill-rule="evenodd"></path><path id="path2" d="M202.500 89.083 L 202.500 124.833 238.292 124.833 L 274.083 124.833 238.333 89.083 C 218.671 69.421,202.565 53.333,202.542 53.333 C 202.519 53.333,202.500 69.421,202.500 89.083 M132.973 118.808 C 129.373 120.646,121.579 124.615,115.333 127.793 C 112.721 129.121,108.858 131.089,106.750 132.166 C 104.642 133.242,100.667 135.267,97.917 136.666 C 90.456 140.461,84.227 143.632,79.750 145.916 C 77.550 147.038,73.050 149.331,69.750 151.011 C 66.450 152.692,61.725 155.097,59.250 156.358 C 56.775 157.618,52.785 159.647,50.383 160.866 C 47.981 162.085,46.069 163.126,46.133 163.178 C 46.197 163.230,48.050 163.854,50.250 164.565 C 52.450 165.275,54.775 166.031,55.417 166.244 C 56.058 166.457,58.946 167.397,61.833 168.333 C 64.721 169.269,68.082 170.364,69.303 170.767 C 70.523 171.170,71.599 171.500,71.694 171.500 C 71.789 171.500,72.103 171.604,72.391 171.731 C 72.680 171.857,74.267 172.390,75.917 172.915 C 77.567 173.439,79.779 174.153,80.833 174.501 C 81.887 174.850,84.775 175.788,87.250 176.586 C 89.725 177.384,93.063 178.469,94.667 178.997 C 96.271 179.525,99.158 180.462,101.083 181.081 C 103.008 181.699,105.783 182.601,107.250 183.085 C 108.717 183.569,110.779 184.241,111.833 184.578 C 112.888 184.915,113.844 185.229,113.958 185.276 C 114.073 185.323,114.167 185.265,114.167 185.147 C 114.167 184.948,116.916 176.357,118.001 173.167 C 118.266 172.387,119.167 169.612,120.003 167.000 C 120.839 164.387,121.739 161.612,122.002 160.833 C 122.265 160.054,123.039 157.692,123.721 155.583 C 124.855 152.077,125.915 148.808,129.447 137.917 C 130.131 135.808,130.865 133.558,131.078 132.917 C 131.292 132.275,132.228 129.387,133.159 126.500 C 134.089 123.612,135.009 120.800,135.202 120.250 C 135.835 118.443,136.138 117.333,135.999 117.333 C 135.924 117.333,134.562 117.997,132.973 118.808 M353.000 168.826 C 351.671 169.266,349.008 170.129,347.083 170.744 C 345.158 171.359,343.433 171.925,343.250 172.002 C 343.067 172.079,341.229 172.683,339.167 173.343 C 337.104 174.003,334.217 174.936,332.750 175.415 C 331.283 175.895,328.921 176.665,327.500 177.126 C 326.079 177.586,323.192 178.526,321.083 179.213 C 318.975 179.901,315.000 181.189,312.250 182.075 C 309.500 182.962,306.725 183.865,306.083 184.083 C 304.732 184.541,298.800 186.467,293.750 188.087 C 288.940 189.631,287.333 190.189,287.333 190.319 C 287.333 190.380,287.700 191.552,288.148 192.923 C 288.596 194.295,289.726 197.779,290.659 200.667 C 291.591 203.554,292.533 206.442,292.751 207.083 C 292.969 207.725,293.909 210.612,294.840 213.500 C 295.771 216.387,296.708 219.275,296.923 219.917 C 297.336 221.150,298.749 225.505,301.411 233.750 C 302.299 236.500,303.204 239.275,303.422 239.917 C 303.640 240.558,304.583 243.446,305.517 246.333 C 306.452 249.221,307.711 253.097,308.316 254.947 L 309.417 258.310 311.551 254.113 C 312.725 251.805,314.642 248.042,315.811 245.750 C 316.980 243.458,319.311 238.883,320.991 235.583 C 322.671 232.283,324.813 228.083,325.751 226.250 C 326.689 224.417,328.488 220.892,329.748 218.417 C 331.009 215.942,332.997 212.042,334.166 209.750 C 335.336 207.458,337.286 203.633,338.501 201.250 C 341.832 194.712,344.814 188.864,347.084 184.417 C 352.455 173.895,355.469 167.970,355.429 168.013 C 355.422 168.019,354.329 168.385,353.000 168.826 M282.833 193.417 C 282.428 193.829,282.135 194.167,282.181 194.167 C 282.226 194.167,282.595 193.829,283.000 193.417 C 283.405 193.004,283.699 192.667,283.653 192.667 C 283.607 192.667,283.238 193.004,282.833 193.417 M276.095 194.151 L 275.608 194.750 276.170 194.214 C 276.480 193.919,276.699 193.649,276.658 193.615 C 276.617 193.580,276.364 193.821,276.095 194.151 M274.744 201.375 L 273.917 202.250 274.792 201.423 C 275.605 200.654,275.743 200.500,275.619 200.500 C 275.592 200.500,275.199 200.894,274.744 201.375 M266.824 203.292 L 266.250 203.917 266.875 203.342 C 267.457 202.808,267.577 202.667,267.449 202.667 C 267.422 202.667,267.140 202.948,266.824 203.292 M265.913 210.042 L 264.583 211.417 265.958 210.087 C 267.235 208.853,267.409 208.667,267.288 208.667 C 267.263 208.667,266.644 209.285,265.913 210.042 M258.573 211.375 L 258.083 211.917 258.625 211.427 C 259.130 210.971,259.243 210.833,259.115 210.833 C 259.086 210.833,258.842 211.077,258.573 211.375 M256.913 218.875 L 255.417 220.417 256.958 218.920 C 257.806 218.097,258.500 217.403,258.500 217.378 C 258.500 217.257,258.303 217.443,256.913 218.875 M247.747 227.875 L 246.250 229.417 247.792 227.920 C 249.224 226.530,249.409 226.333,249.288 226.333 C 249.263 226.333,248.570 227.027,247.747 227.875 M240.658 228.958 L 240.083 229.583 240.708 229.009 C 241.052 228.693,241.333 228.412,241.333 228.384 C 241.333 228.257,241.192 228.377,240.658 228.958 M86.391 246.513 C 86.448 246.827,86.649 248.171,86.836 249.500 C 87.023 250.829,87.250 252.254,87.341 252.667 C 87.432 253.079,87.766 255.104,88.083 257.167 C 88.708 261.220,89.574 266.728,90.665 273.583 C 91.044 275.967,91.643 279.792,91.995 282.083 C 92.348 284.375,92.682 286.438,92.738 286.667 C 92.794 286.896,93.097 288.771,93.410 290.833 C 93.724 292.896,94.286 296.496,94.659 298.833 C 95.032 301.171,95.639 305.033,96.007 307.417 C 96.375 309.800,96.709 311.862,96.750 312.000 C 96.791 312.137,97.088 313.975,97.409 316.083 C 97.731 318.192,98.290 321.792,98.652 324.083 C 99.014 326.375,99.576 329.975,99.901 332.083 C 100.226 334.192,100.567 336.292,100.660 336.750 C 100.753 337.208,101.097 339.380,101.426 341.576 C 101.754 343.773,102.063 345.633,102.111 345.711 C 102.159 345.789,102.875 344.930,103.703 343.801 C 104.530 342.673,105.428 341.450,105.697 341.083 C 108.311 337.524,109.898 335.347,110.132 335.000 C 110.286 334.771,111.614 332.933,113.081 330.916 C 114.549 328.899,115.877 327.061,116.032 326.833 C 116.187 326.604,117.139 325.292,118.147 323.917 C 119.154 322.542,120.168 321.154,120.400 320.833 C 120.852 320.207,122.403 318.073,123.973 315.917 C 143.210 289.504,144.326 287.934,143.968 287.787 C 143.848 287.737,142.925 287.088,141.917 286.344 C 140.908 285.600,139.296 284.419,138.333 283.720 C 137.371 283.020,136.190 282.160,135.708 281.807 C 135.227 281.455,134.440 280.881,133.958 280.532 C 133.477 280.183,132.671 279.597,132.167 279.231 C 131.662 278.864,130.912 278.321,130.500 278.024 C 130.087 277.728,128.962 276.907,128.000 276.201 C 127.037 275.495,125.462 274.355,124.500 273.669 C 123.537 272.983,122.446 272.195,122.075 271.919 C 121.704 271.643,121.216 271.286,120.992 271.125 C 120.767 270.965,119.940 270.365,119.154 269.792 C 118.367 269.219,117.103 268.300,116.344 267.750 C 115.584 267.200,114.315 266.276,113.523 265.698 C 112.731 265.119,111.933 264.537,111.750 264.404 C 111.567 264.272,110.592 263.561,109.583 262.825 C 108.575 262.088,107.563 261.359,107.333 261.204 C 106.922 260.925,103.867 258.701,102.250 257.504 C 100.904 256.507,93.013 250.773,92.615 250.502 C 92.414 250.365,91.162 249.462,89.833 248.494 C 88.504 247.526,87.162 246.556,86.851 246.339 L 86.286 245.943 86.391 246.513 M247.917 293.496 C 246.175 294.767,244.450 296.026,244.083 296.294 C 239.024 299.992,231.863 305.187,231.392 305.500 C 231.185 305.637,229.948 306.537,228.643 307.500 C 227.337 308.462,226.078 309.376,225.843 309.530 C 225.609 309.684,223.467 311.236,221.083 312.979 C 214.930 317.479,214.993 317.433,212.768 319.047 C 211.658 319.853,209.901 321.128,208.863 321.881 C 206.830 323.356,205.772 324.123,204.333 325.167 C 203.829 325.532,203.004 326.132,202.500 326.500 C 201.996 326.868,201.171 327.467,200.667 327.831 C 200.162 328.195,198.925 329.097,197.917 329.835 C 196.908 330.573,195.498 331.595,194.782 332.106 C 194.066 332.618,193.512 333.068,193.550 333.106 C 193.637 333.193,195.443 333.502,200.750 334.339 C 203.042 334.700,206.792 335.292,209.083 335.653 C 211.375 336.015,214.975 336.577,217.083 336.903 C 219.192 337.229,221.364 337.578,221.910 337.680 C 222.457 337.781,224.519 338.115,226.494 338.421 C 228.468 338.728,232.258 339.325,234.917 339.749 C 242.881 341.018,247.873 341.804,251.833 342.414 C 253.896 342.731,255.735 343.028,255.921 343.073 C 256.106 343.117,258.206 343.456,260.587 343.826 C 262.968 344.195,266.829 344.802,269.167 345.175 C 275.542 346.191,281.322 347.105,285.417 347.745 C 287.433 348.060,290.009 348.477,291.140 348.671 C 293.605 349.095,293.527 349.144,292.544 347.800 C 291.266 346.054,289.690 343.884,288.271 341.917 C 287.543 340.908,286.528 339.512,286.016 338.813 C 285.503 338.115,284.490 336.727,283.766 335.730 C 283.041 334.733,282.171 333.542,281.833 333.083 C 280.860 331.765,275.129 323.869,274.655 323.194 C 274.419 322.858,272.206 319.808,269.738 316.416 C 267.270 313.024,265.137 310.085,265.000 309.885 C 264.862 309.685,263.962 308.452,263.000 307.146 C 262.037 305.839,261.137 304.601,261.000 304.394 C 259.822 302.621,251.379 291.181,251.250 291.183 C 251.158 291.185,249.658 292.226,247.917 293.496 " stroke="none" fill="#b4b4b4" fill-rule="evenodd"></path><path id="path3" d="" stroke="none" fill="#787878" fill-rule="evenodd"></path><path id="path4" d="M204.000 54.750 C 204.311 55.071,204.603 55.333,204.649 55.333 C 204.695 55.333,204.478 55.071,204.167 54.750 C 203.856 54.429,203.564 54.167,203.518 54.167 C 203.472 54.167,203.689 54.429,204.000 54.750 M205.333 56.083 C 205.644 56.404,205.936 56.667,205.982 56.667 C 206.028 56.667,205.811 56.404,205.500 56.083 C 205.189 55.762,204.897 55.500,204.851 55.500 C 204.805 55.500,205.022 55.762,205.333 56.083 M206.667 57.417 C 206.978 57.737,207.270 58.000,207.315 58.000 C 207.361 58.000,207.144 57.737,206.833 57.417 C 206.522 57.096,206.230 56.833,206.185 56.833 C 206.139 56.833,206.356 57.096,206.667 57.417 M208.000 58.750 C 208.311 59.071,208.603 59.333,208.649 59.333 C 208.695 59.333,208.478 59.071,208.167 58.750 C 207.856 58.429,207.564 58.167,207.518 58.167 C 207.472 58.167,207.689 58.429,208.000 58.750 M209.333 60.083 C 209.644 60.404,209.936 60.667,209.982 60.667 C 210.028 60.667,209.811 60.404,209.500 60.083 C 209.189 59.762,208.897 59.500,208.851 59.500 C 208.805 59.500,209.022 59.762,209.333 60.083 M210.667 61.417 C 210.978 61.737,211.270 62.000,211.315 62.000 C 211.361 62.000,211.144 61.737,210.833 61.417 C 210.522 61.096,210.230 60.833,210.185 60.833 C 210.139 60.833,210.356 61.096,210.667 61.417 M212.000 62.750 C 212.311 63.071,212.603 63.333,212.649 63.333 C 212.695 63.333,212.478 63.071,212.167 62.750 C 211.856 62.429,211.564 62.167,211.518 62.167 C 211.472 62.167,211.689 62.429,212.000 62.750 M213.333 64.083 C 213.644 64.404,213.936 64.667,213.982 64.667 C 214.028 64.667,213.811 64.404,213.500 64.083 C 213.189 63.762,212.897 63.500,212.851 63.500 C 212.805 63.500,213.022 63.762,213.333 64.083 M214.333 65.052 C 214.333 65.081,214.577 65.325,214.875 65.594 L 215.417 66.083 214.927 65.542 C 214.471 65.037,214.333 64.923,214.333 65.052 M215.667 66.385 C 215.667 66.414,215.910 66.658,216.208 66.927 L 216.750 67.417 216.260 66.875 C 215.804 66.370,215.667 66.257,215.667 66.385 M217.000 67.719 C 217.000 67.748,217.244 67.991,217.542 68.260 L 218.083 68.750 217.594 68.208 C 217.138 67.703,217.000 67.590,217.000 67.719 M218.333 69.052 C 218.333 69.081,218.577 69.325,218.875 69.594 L 219.417 70.083 218.927 69.542 C 218.471 69.037,218.333 68.923,218.333 69.052 M219.667 70.385 C 219.667 70.414,219.910 70.658,220.208 70.927 L 220.750 71.417 220.260 70.875 C 219.804 70.370,219.667 70.257,219.667 70.385 M221.000 71.719 C 221.000 71.748,221.244 71.991,221.542 72.260 L 222.083 72.750 221.594 72.208 C 221.138 71.703,221.000 71.590,221.000 71.719 M222.333 73.052 C 222.333 73.081,222.577 73.325,222.875 73.594 L 223.417 74.083 222.927 73.542 C 222.471 73.037,222.333 72.923,222.333 73.052 M223.667 74.385 C 223.667 74.414,223.910 74.658,224.208 74.927 L 224.750 75.417 224.260 74.875 C 223.804 74.370,223.667 74.257,223.667 74.385 M225.000 75.719 C 225.000 75.748,225.244 75.991,225.542 76.260 L 226.083 76.750 225.594 76.208 C 225.138 75.703,225.000 75.590,225.000 75.719 M226.333 77.052 C 226.333 77.081,226.577 77.325,226.875 77.594 L 227.417 78.083 226.927 77.542 C 226.471 77.037,226.333 76.923,226.333 77.052 M227.667 78.385 C 227.667 78.414,227.910 78.658,228.208 78.927 L 228.750 79.417 228.260 78.875 C 227.804 78.370,227.667 78.257,227.667 78.385 M255.000 105.719 C 255.000 105.748,255.244 105.991,255.542 106.260 L 256.083 106.750 255.594 106.208 C 255.138 105.703,255.000 105.590,255.000 105.719 M256.333 107.052 C 256.333 107.081,256.577 107.325,256.875 107.594 L 257.417 108.083 256.927 107.542 C 256.471 107.037,256.333 106.923,256.333 107.052 M257.667 108.385 C 257.667 108.414,257.910 108.658,258.208 108.927 L 258.750 109.417 258.260 108.875 C 257.804 108.370,257.667 108.257,257.667 108.385 M259.000 109.719 C 259.000 109.748,259.244 109.991,259.542 110.260 L 260.083 110.750 259.594 110.208 C 259.138 109.703,259.000 109.590,259.000 109.719 M267.167 117.917 C 270.970 121.721,274.119 124.833,274.165 124.833 C 274.211 124.833,271.137 121.721,267.333 117.917 C 263.530 114.112,260.381 111.000,260.335 111.000 C 260.289 111.000,263.363 114.112,267.167 117.917 M277.406 198.708 L 276.917 199.250 277.458 198.760 C 277.963 198.304,278.077 198.167,277.948 198.167 C 277.919 198.167,277.675 198.410,277.406 198.708 M265.658 204.458 L 265.083 205.083 265.708 204.509 C 266.052 204.193,266.333 203.912,266.333 203.884 C 266.333 203.757,266.192 203.877,265.658 204.458 M268.658 207.292 L 268.083 207.917 268.708 207.342 C 269.052 207.026,269.333 206.745,269.333 206.717 C 269.333 206.590,269.192 206.710,268.658 207.292 M247.824 221.958 L 247.250 222.583 247.875 222.009 C 248.219 221.693,248.500 221.412,248.500 221.384 C 248.500 221.257,248.359 221.377,247.824 221.958 " stroke="none" fill="#949494" fill-rule="evenodd"></path><path id="path5" d="M229.326 80.042 C 230.017 80.778,230.167 80.910,230.167 80.785 C 230.167 80.758,229.810 80.402,229.375 79.993 L 228.583 79.250 229.326 80.042 M230.833 81.583 C 231.144 81.904,231.436 82.167,231.482 82.167 C 231.528 82.167,231.311 81.904,231.000 81.583 C 230.689 81.262,230.397 81.000,230.351 81.000 C 230.305 81.000,230.522 81.262,230.833 81.583 M232.167 82.917 C 232.478 83.237,232.770 83.500,232.815 83.500 C 232.861 83.500,232.644 83.237,232.333 82.917 C 232.022 82.596,231.730 82.333,231.685 82.333 C 231.639 82.333,231.856 82.596,232.167 82.917 M233.000 83.719 C 233.000 83.748,233.244 83.991,233.542 84.260 L 234.083 84.750 233.594 84.208 C 233.138 83.703,233.000 83.590,233.000 83.719 M234.333 85.052 C 234.333 85.081,234.577 85.325,234.875 85.594 L 235.417 86.083 234.927 85.542 C 234.471 85.037,234.333 84.923,234.333 85.052 M235.667 86.385 C 235.667 86.414,235.910 86.658,236.208 86.927 L 236.750 87.417 236.260 86.875 C 235.804 86.370,235.667 86.257,235.667 86.385 M237.000 87.719 C 237.000 87.748,237.244 87.991,237.542 88.260 L 238.083 88.750 237.594 88.208 C 237.138 87.703,237.000 87.590,237.000 87.719 M238.333 89.052 C 238.333 89.081,238.577 89.325,238.875 89.594 L 239.417 90.083 238.927 89.542 C 238.471 89.037,238.333 88.923,238.333 89.052 M239.667 90.385 C 239.667 90.414,239.910 90.658,240.208 90.927 L 240.750 91.417 240.260 90.875 C 239.804 90.370,239.667 90.257,239.667 90.385 M220.375 124.958 C 230.252 124.982,246.415 124.982,256.292 124.958 C 266.169 124.935,258.087 124.915,238.333 124.915 C 218.579 124.915,210.498 124.935,220.375 124.958 " stroke="none" fill="#848484" fill-rule="evenodd"></path><path id="path6" d="M280.577 195.542 L 279.750 196.417 280.625 195.590 C 281.106 195.135,281.500 194.741,281.500 194.715 C 281.500 194.590,281.346 194.729,280.577 195.542 M271.575 198.708 L 270.917 199.417 271.625 198.758 C 272.284 198.145,272.410 198.000,272.284 198.000 C 272.257 198.000,271.938 198.319,271.575 198.708 M272.000 203.917 C 271.317 204.604,270.796 205.167,270.842 205.167 C 270.888 205.167,271.484 204.604,272.167 203.917 C 272.850 203.229,273.371 202.667,273.325 202.667 C 273.279 202.667,272.683 203.229,272.000 203.917 M262.740 207.375 L 262.250 207.917 262.792 207.427 C 263.297 206.971,263.410 206.833,263.281 206.833 C 263.252 206.833,263.009 207.077,262.740 207.375 M263.158 212.625 L 262.583 213.250 263.208 212.676 C 263.790 212.141,263.910 212.000,263.783 212.000 C 263.755 212.000,263.474 212.281,263.158 212.625 M255.073 214.875 L 254.583 215.417 255.125 214.927 C 255.630 214.471,255.743 214.333,255.615 214.333 C 255.586 214.333,255.342 214.577,255.073 214.875 M254.078 221.542 L 253.083 222.583 254.125 221.589 C 254.698 221.041,255.167 220.573,255.167 220.547 C 255.167 220.424,255.002 220.574,254.078 221.542 M245.491 224.292 L 244.917 224.917 245.542 224.342 C 245.885 224.026,246.167 223.745,246.167 223.717 C 246.167 223.590,246.026 223.710,245.491 224.292 M245.077 230.375 L 244.250 231.250 245.125 230.423 C 245.938 229.654,246.076 229.500,245.952 229.500 C 245.926 229.500,245.532 229.894,245.077 230.375 " stroke="none" fill="#6c6c6c" fill-rule="evenodd"></path><path id="path7" d="M276.158 199.958 L 275.583 200.583 276.208 200.009 C 276.552 199.693,276.833 199.412,276.833 199.384 C 276.833 199.257,276.692 199.377,276.158 199.958 " stroke="none" fill="#acacac" fill-rule="evenodd"></path><path id="path8" d="M202.415 89.000 C 202.415 108.754,202.435 116.835,202.458 106.958 C 202.482 97.081,202.482 80.919,202.458 71.042 C 202.435 61.165,202.415 69.246,202.415 89.000 M275.073 195.208 L 274.583 195.750 275.125 195.260 C 275.630 194.804,275.743 194.667,275.615 194.667 C 275.586 194.667,275.342 194.910,275.073 195.208 " stroke="none" fill="#a4a4a4" fill-rule="evenodd"></path></g></svg>