<svg id="svg" version="1.1" xmlns="http://www.w3.org/2000/svg" xmlns:xlink="http://www.w3.org/1999/xlink" width="400" height="249.53445065176908" viewBox="0, 0, 400,249.53445065176908"><g id="svgg"><path id="path0" d="M196.055 44.242 C 195.959 44.337,194.334 44.440,192.444 44.470 C 189.936 44.511,188.932 44.616,188.730 44.860 C 188.557 45.068,187.909 45.194,187.003 45.194 C 186.048 45.194,185.426 45.321,185.179 45.568 C 184.912 45.835,184.261 45.943,182.906 45.943 C 181.449 45.943,180.975 46.030,180.864 46.317 C 180.769 46.565,180.378 46.692,179.706 46.692 C 179.148 46.692,178.514 46.852,178.297 47.048 C 178.080 47.244,177.397 47.455,176.779 47.518 C 176.129 47.584,175.682 47.749,175.718 47.911 C 175.754 48.073,175.434 48.190,174.954 48.190 C 174.500 48.190,173.910 48.355,173.643 48.556 C 173.377 48.758,172.931 48.927,172.652 48.931 C 172.374 48.935,171.906 49.107,171.612 49.313 C 171.318 49.519,170.730 49.726,170.307 49.772 C 169.883 49.818,169.456 49.936,169.359 50.034 C 169.077 50.316,167.013 51.186,166.627 51.186 C 166.434 51.186,166.212 51.355,166.133 51.561 C 166.052 51.772,165.680 51.935,165.281 51.935 C 164.892 51.935,164.494 52.065,164.396 52.223 C 164.289 52.395,164.327 52.444,164.488 52.344 C 164.638 52.252,164.816 52.268,164.884 52.379 C 164.953 52.490,164.704 52.604,164.330 52.632 C 163.517 52.694,160.950 53.996,160.300 54.676 C 160.231 54.748,159.950 54.845,159.675 54.892 C 159.401 54.939,159.140 55.075,159.096 55.195 C 159.051 55.315,158.518 55.662,157.910 55.966 C 157.302 56.269,156.804 56.610,156.804 56.723 C 156.804 56.836,156.635 56.929,156.429 56.929 C 156.223 56.929,155.830 57.154,155.556 57.428 C 155.281 57.703,155.056 57.854,155.056 57.765 C 155.056 57.675,154.840 57.851,154.576 58.155 C 154.311 58.460,154.031 58.702,153.951 58.693 C 153.411 58.631,153.273 58.725,153.404 59.064 C 153.485 59.277,153.451 59.389,153.328 59.313 C 153.008 59.115,152.310 59.426,152.310 59.766 C 152.310 59.924,151.959 60.208,151.530 60.398 C 151.101 60.588,150.442 61.065,150.067 61.458 C 149.691 61.851,149.296 62.172,149.189 62.172 C 149.081 62.172,148.684 62.481,148.307 62.859 C 147.930 63.237,147.333 63.770,146.981 64.045 C 146.628 64.320,146.335 64.685,146.329 64.856 C 146.322 65.028,146.154 65.169,145.955 65.169 C 145.458 65.169,143.793 66.920,143.989 67.237 C 144.083 67.389,144.023 67.416,143.842 67.304 C 143.649 67.185,143.489 67.301,143.406 67.617 C 143.334 67.893,143.049 68.178,142.773 68.250 C 142.457 68.333,142.341 68.493,142.460 68.686 C 142.564 68.854,142.546 68.927,142.420 68.850 C 142.050 68.621,141.250 69.339,141.463 69.709 C 141.568 69.890,141.559 69.952,141.443 69.847 C 141.157 69.587,139.825 70.899,139.825 71.441 C 139.825 71.680,139.592 71.950,139.307 72.041 C 139.022 72.131,138.846 72.262,138.915 72.332 C 138.984 72.401,138.546 72.952,137.942 73.557 C 137.337 74.162,136.909 74.657,136.991 74.657 C 137.073 74.657,137.015 74.807,136.862 74.992 C 136.709 75.176,136.667 75.419,136.769 75.531 C 136.871 75.644,136.806 75.650,136.625 75.545 C 136.407 75.420,136.250 75.533,136.159 75.880 C 136.083 76.168,135.866 76.404,135.676 76.404 C 135.486 76.404,135.331 76.629,135.331 76.904 C 135.331 77.190,135.164 77.403,134.942 77.403 C 134.727 77.403,134.612 77.501,134.686 77.620 C 134.760 77.739,134.598 78.037,134.326 78.282 C 134.055 78.528,133.833 78.880,133.833 79.065 C 133.833 79.250,133.717 79.401,133.575 79.401 C 133.434 79.401,133.248 79.597,133.163 79.838 C 133.077 80.078,132.842 80.468,132.640 80.703 C 132.438 80.939,132.272 81.417,132.272 81.765 C 132.272 82.135,132.130 82.397,131.929 82.397 C 131.740 82.397,131.586 82.566,131.586 82.772 C 131.586 82.978,131.410 83.146,131.196 83.146 C 130.982 83.146,130.868 83.245,130.943 83.366 C 131.018 83.488,130.856 83.870,130.583 84.217 C 130.311 84.564,130.087 85.077,130.087 85.358 C 130.087 85.638,129.922 85.960,129.720 86.073 C 129.518 86.187,129.311 86.551,129.260 86.884 C 129.209 87.217,129.038 87.533,128.879 87.586 C 128.719 87.639,128.589 87.885,128.589 88.134 C 128.589 88.382,128.421 88.650,128.215 88.729 C 128.009 88.809,127.840 89.146,127.840 89.479 C 127.840 89.811,127.672 90.149,127.466 90.228 C 127.260 90.307,127.091 90.649,127.091 90.989 C 127.091 91.328,126.971 91.680,126.824 91.771 C 126.678 91.861,126.620 92.099,126.697 92.298 C 126.774 92.500,126.727 92.593,126.589 92.508 C 126.383 92.380,126.201 93.489,126.313 94.195 C 126.329 94.298,126.204 94.354,126.036 94.320 C 125.867 94.285,125.691 94.538,125.644 94.881 C 125.596 95.225,125.425 95.618,125.263 95.755 C 125.101 95.893,124.929 96.339,124.881 96.748 C 124.833 97.156,124.636 97.715,124.444 97.989 C 124.252 98.264,124.095 98.850,124.095 99.292 C 124.095 99.734,123.984 100.164,123.848 100.248 C 123.703 100.337,123.661 100.214,123.747 99.951 C 123.868 99.574,123.848 99.562,123.623 99.875 C 123.475 100.081,123.352 100.634,123.350 101.104 C 123.348 101.574,123.149 102.183,122.909 102.458 C 122.669 102.732,122.605 102.880,122.767 102.785 C 122.929 102.691,123.125 102.716,123.202 102.841 C 123.280 102.966,123.200 103.124,123.025 103.191 C 122.850 103.258,122.679 103.686,122.644 104.142 C 122.609 104.599,122.416 105.154,122.214 105.377 C 122.013 105.600,121.848 106.255,121.848 106.832 C 121.848 107.410,121.698 108.132,121.515 108.436 C 121.309 108.779,121.158 109.983,121.117 111.610 C 121.080 113.052,120.943 114.299,120.812 114.380 C 120.680 114.461,120.597 114.630,120.626 114.754 C 120.655 114.879,120.603 115.151,120.511 115.357 C 120.144 116.178,120.449 132.964,120.829 132.882 C 121.135 132.816,121.135 132.864,120.829 133.235 C 120.555 133.567,120.545 133.688,120.787 133.769 C 121.003 133.842,121.099 134.517,121.099 135.976 C 121.099 137.363,121.194 138.077,121.379 138.077 C 121.583 138.077,121.585 138.167,121.385 138.408 C 121.184 138.650,121.193 138.827,121.417 139.069 C 121.662 139.334,121.649 139.364,121.348 139.219 C 121.119 139.109,121.143 139.178,121.411 139.397 C 121.731 139.660,121.848 140.124,121.848 141.133 C 121.848 142.053,121.972 142.614,122.222 142.821 C 122.428 142.992,122.597 143.500,122.597 143.949 C 122.597 144.459,122.743 144.822,122.987 144.915 C 123.202 144.998,123.306 145.180,123.220 145.321 C 123.133 145.461,122.929 145.499,122.767 145.404 C 122.605 145.310,122.669 145.457,122.909 145.732 C 123.149 146.007,123.346 146.576,123.346 146.997 C 123.346 147.446,123.500 147.821,123.720 147.906 C 123.949 147.993,124.095 148.371,124.095 148.875 C 124.095 149.330,124.261 149.938,124.463 150.228 C 124.666 150.517,124.858 151.101,124.890 151.525 C 124.923 151.949,125.078 152.346,125.236 152.406 C 125.393 152.467,125.593 152.871,125.679 153.303 C 125.770 153.756,125.947 154.022,126.096 153.931 C 126.238 153.843,126.338 153.863,126.319 153.976 C 126.198 154.670,126.379 155.812,126.589 155.682 C 126.727 155.597,126.774 155.690,126.697 155.892 C 126.620 156.091,126.678 156.328,126.824 156.419 C 126.971 156.510,127.091 156.852,127.091 157.181 C 127.091 157.509,127.257 157.870,127.459 157.984 C 127.661 158.097,127.868 158.462,127.918 158.794 C 127.969 159.127,128.141 159.443,128.300 159.496 C 128.459 159.549,128.589 159.798,128.589 160.050 C 128.589 160.302,128.719 160.551,128.879 160.604 C 129.038 160.657,129.209 160.973,129.260 161.306 C 129.311 161.638,129.518 162.003,129.720 162.116 C 129.922 162.229,130.087 162.551,130.087 162.832 C 130.087 163.112,130.311 163.626,130.583 163.972 C 130.856 164.319,131.018 164.702,130.943 164.823 C 130.868 164.945,130.982 165.044,131.196 165.044 C 131.410 165.044,131.586 165.203,131.586 165.397 C 131.586 165.592,131.716 165.795,131.875 165.848 C 132.034 165.901,132.202 166.195,132.249 166.503 C 132.321 166.971,133.127 168.348,133.589 168.789 C 133.918 169.104,134.687 170.431,134.637 170.599 C 134.607 170.702,134.750 170.787,134.956 170.787 C 135.168 170.787,135.331 171.010,135.331 171.301 C 135.331 171.583,135.443 171.745,135.581 171.660 C 135.719 171.575,135.943 171.800,136.080 172.160 C 136.232 172.559,136.441 172.745,136.617 172.636 C 136.790 172.529,136.839 172.566,136.739 172.728 C 136.647 172.877,136.687 173.071,136.829 173.159 C 136.971 173.246,137.024 173.419,136.948 173.543 C 136.871 173.667,137.105 173.842,137.467 173.933 C 137.952 174.055,138.037 174.154,137.789 174.311 C 137.530 174.476,137.553 174.525,137.890 174.528 C 138.130 174.530,138.327 174.704,138.327 174.914 C 138.327 175.125,138.495 175.361,138.700 175.440 C 138.905 175.518,139.016 175.675,138.946 175.788 C 138.876 175.902,139.046 176.066,139.322 176.154 C 139.599 176.241,139.825 176.511,139.825 176.752 C 139.825 177.247,140.816 178.277,141.292 178.277 C 141.463 178.277,141.528 178.397,141.438 178.543 C 141.243 178.859,142.089 179.545,142.420 179.340 C 142.546 179.262,142.564 179.336,142.460 179.504 C 142.340 179.698,142.463 179.859,142.796 179.946 C 143.085 180.021,143.321 180.213,143.321 180.371 C 143.321 180.761,145.510 183.021,145.889 183.022 C 146.056 183.022,146.417 183.359,146.692 183.770 C 146.966 184.181,147.274 184.518,147.376 184.519 C 147.478 184.519,147.883 184.856,148.277 185.268 C 148.671 185.680,149.081 186.017,149.189 186.017 C 149.296 186.017,149.706 186.355,150.100 186.767 C 150.494 187.179,150.900 187.516,151.003 187.516 C 151.107 187.516,151.500 187.802,151.878 188.153 C 152.256 188.503,152.668 188.726,152.794 188.648 C 152.920 188.571,153.093 188.728,153.178 188.997 C 153.264 189.267,153.539 189.553,153.790 189.632 C 154.041 189.712,154.569 190.055,154.963 190.394 C 155.358 190.733,155.871 191.011,156.105 191.011 C 156.338 191.011,156.619 191.171,156.729 191.366 C 156.839 191.561,157.088 191.757,157.283 191.803 C 157.477 191.848,157.846 192.086,158.103 192.331 C 158.360 192.577,158.678 192.710,158.811 192.629 C 158.943 192.547,159.051 192.655,159.051 192.869 C 159.051 193.083,159.230 193.258,159.450 193.258 C 159.669 193.258,160.174 193.491,160.573 193.775 C 160.972 194.059,161.298 194.206,161.298 194.102 C 161.298 193.997,161.441 194.107,161.615 194.345 C 161.790 194.584,162.180 194.798,162.483 194.820 C 162.785 194.843,163.089 195.007,163.157 195.184 C 163.225 195.361,163.415 195.506,163.580 195.506 C 163.746 195.506,164.058 195.664,164.275 195.857 C 164.492 196.050,164.950 196.247,165.293 196.294 C 165.637 196.341,166.030 196.522,166.168 196.697 C 166.305 196.871,166.772 197.040,167.205 197.071 C 167.637 197.103,167.955 197.187,167.911 197.259 C 167.867 197.330,168.273 197.631,168.813 197.926 C 169.352 198.222,169.724 198.352,169.640 198.215 C 169.539 198.051,169.645 198.047,169.949 198.203 C 171.108 198.798,172.345 199.251,172.810 199.251 C 173.090 199.251,173.488 199.419,173.694 199.625 C 173.900 199.831,174.453 200.000,174.924 200.000 C 175.410 200.000,175.753 200.117,175.718 200.270 C 175.683 200.421,176.144 200.588,176.764 200.648 C 177.373 200.708,178.047 200.903,178.262 201.081 C 178.476 201.260,179.101 201.437,179.650 201.475 C 180.200 201.513,180.739 201.703,180.849 201.896 C 180.993 202.149,181.573 202.247,182.927 202.247 C 184.263 202.247,184.913 202.355,185.179 202.622 C 185.426 202.869,186.048 202.996,187.003 202.996 C 187.909 202.996,188.557 203.122,188.730 203.330 C 188.932 203.573,189.935 203.679,192.431 203.720 C 194.314 203.751,195.971 203.849,196.114 203.937 C 196.476 204.162,203.562 204.171,203.884 203.948 C 204.029 203.847,205.681 203.750,207.556 203.731 C 210.145 203.705,211.035 203.613,211.256 203.347 C 211.451 203.111,212.083 202.996,213.182 202.996 C 214.296 202.996,214.951 202.875,215.238 202.616 C 215.527 202.354,216.212 202.230,217.430 202.219 C 218.633 202.207,219.296 202.089,219.494 201.850 C 219.655 201.657,220.096 201.498,220.474 201.498 C 220.853 201.498,221.302 201.330,221.473 201.124 C 221.677 200.878,222.234 200.749,223.096 200.749 C 223.958 200.749,224.515 200.621,224.719 200.375 C 224.890 200.169,225.409 200.000,225.873 200.000 C 226.456 200.000,226.717 199.884,226.717 199.625 C 226.717 199.390,226.954 199.251,227.359 199.251 C 227.712 199.251,228.169 199.082,228.375 198.876 C 228.581 198.670,229.107 198.498,229.543 198.494 C 229.980 198.490,230.555 198.321,230.822 198.119 C 231.088 197.918,231.496 197.753,231.728 197.753 C 231.959 197.753,232.288 197.584,232.459 197.378 C 232.630 197.172,233.032 197.004,233.351 197.004 C 233.671 197.004,234.033 196.825,234.155 196.607 C 234.277 196.389,234.451 196.220,234.542 196.232 C 235.344 196.341,235.800 196.228,235.456 196.005 C 235.250 195.872,235.194 195.753,235.331 195.740 C 236.129 195.667,236.531 195.496,236.812 195.112 C 236.986 194.875,237.257 194.760,237.415 194.858 C 237.573 194.956,237.703 194.910,237.703 194.757 C 237.703 194.603,237.803 194.540,237.926 194.616 C 238.049 194.692,238.219 194.574,238.303 194.355 C 238.387 194.135,238.614 194.016,238.808 194.091 C 239.001 194.165,239.222 194.064,239.297 193.867 C 239.373 193.670,239.607 193.508,239.817 193.508 C 240.028 193.508,240.200 193.399,240.200 193.266 C 240.200 193.133,240.367 193.089,240.572 193.167 C 240.785 193.249,241.010 193.139,241.098 192.911 C 241.182 192.692,241.336 192.565,241.440 192.629 C 241.544 192.693,242.178 192.355,242.848 191.878 C 243.519 191.402,244.209 191.011,244.381 191.011 C 244.553 191.011,244.694 190.855,244.694 190.664 C 244.694 190.473,245.172 190.089,245.755 189.810 C 247.024 189.205,247.741 188.683,248.910 187.516 C 249.391 187.035,249.699 186.810,249.593 187.016 C 249.488 187.222,249.578 187.173,249.794 186.906 C 250.010 186.640,250.187 186.524,250.187 186.650 C 250.187 186.775,250.518 186.516,250.922 186.073 C 251.326 185.631,251.758 185.268,251.880 185.268 C 252.003 185.268,252.543 184.766,253.080 184.152 C 253.618 183.537,254.170 183.030,254.307 183.024 C 254.444 183.018,254.838 182.712,255.181 182.346 C 255.524 181.979,255.637 181.777,255.431 181.898 C 254.801 182.266,257.256 179.879,257.990 179.409 C 258.368 179.167,258.677 178.813,258.677 178.623 C 258.677 178.433,258.796 178.277,258.941 178.277 C 259.087 178.277,259.125 178.147,259.027 177.989 C 258.927 177.826,258.958 177.768,259.100 177.855 C 259.237 177.941,259.592 177.785,259.887 177.510 C 260.481 176.956,260.596 176.656,260.112 176.920 C 259.941 177.014,260.222 176.732,260.737 176.293 C 261.252 175.854,261.673 175.384,261.673 175.249 C 261.673 175.114,262.001 174.700,262.402 174.330 C 262.803 173.961,263.517 173.080,263.990 172.374 C 264.463 171.667,265.146 170.770,265.508 170.379 C 265.871 169.988,266.167 169.470,266.167 169.229 C 266.167 168.987,266.342 168.789,266.557 168.789 C 266.771 168.789,266.878 168.680,266.796 168.546 C 266.713 168.412,266.875 168.106,267.155 167.866 C 267.436 167.626,267.665 167.174,267.665 166.861 C 267.665 166.548,267.806 166.291,267.978 166.289 C 268.297 166.286,269.341 164.357,269.224 163.987 C 269.188 163.874,269.328 163.716,269.536 163.637 C 269.743 163.557,269.913 163.348,269.913 163.171 C 269.913 162.994,270.082 162.785,270.289 162.705 C 270.497 162.626,270.652 162.473,270.634 162.366 C 270.511 161.615,270.697 161.078,271.036 161.208 C 271.318 161.316,271.411 161.166,271.411 160.603 C 271.411 160.167,271.568 159.794,271.785 159.710 C 271.991 159.631,272.160 159.330,272.160 159.041 C 272.160 158.752,272.328 158.348,272.534 158.142 C 272.740 157.936,272.909 157.501,272.909 157.175 C 272.909 156.850,273.039 156.504,273.197 156.406 C 273.391 156.286,273.419 156.342,273.282 156.578 C 273.170 156.771,273.174 156.842,273.291 156.736 C 273.407 156.630,273.537 156.129,273.578 155.623 C 273.620 155.118,273.823 154.609,274.030 154.493 C 274.238 154.377,274.407 154.003,274.407 153.663 C 274.407 153.322,274.576 152.978,274.782 152.899 C 274.988 152.820,275.156 152.467,275.156 152.115 C 275.156 151.763,275.353 151.250,275.593 150.975 C 275.833 150.701,275.901 150.551,275.744 150.642 C 275.587 150.734,275.394 150.642,275.316 150.439 C 275.234 150.225,275.302 150.094,275.477 150.128 C 275.661 150.164,275.811 149.823,275.857 149.264 C 275.914 148.581,276.027 148.377,276.294 148.479 C 276.571 148.586,276.654 148.386,276.654 147.613 C 276.654 146.432,276.866 145.765,277.180 145.959 C 277.303 146.035,277.403 145.486,277.403 144.739 C 277.403 143.837,277.529 143.278,277.778 143.071 C 278.010 142.878,278.152 142.330,278.152 141.625 C 278.152 140.903,278.308 140.317,278.579 140.017 C 278.922 139.639,278.941 139.505,278.678 139.342 C 278.497 139.230,278.452 139.075,278.578 138.997 C 278.704 138.919,278.834 138.319,278.868 137.663 C 278.902 137.008,279.048 136.328,279.193 136.154 C 279.338 135.979,279.393 135.670,279.315 135.467 C 279.237 135.264,279.278 135.032,279.406 134.953 C 279.719 134.760,279.719 113.430,279.406 113.237 C 279.278 113.158,279.237 112.926,279.315 112.723 C 279.393 112.520,279.338 112.210,279.192 112.035 C 279.047 111.859,278.901 111.215,278.868 110.602 C 278.836 109.989,278.689 109.404,278.543 109.301 C 278.365 109.175,278.397 109.036,278.642 108.879 C 278.957 108.676,278.951 108.584,278.594 108.189 C 278.358 107.929,278.155 107.222,278.120 106.542 C 278.086 105.887,277.911 105.229,277.731 105.080 C 277.534 104.916,277.403 104.266,277.403 103.450 C 277.403 102.704,277.303 102.155,277.180 102.231 C 276.866 102.425,276.654 101.758,276.654 100.577 C 276.654 99.804,276.571 99.604,276.294 99.710 C 276.027 99.813,275.914 99.609,275.857 98.926 C 275.811 98.367,275.661 98.026,275.477 98.062 C 275.302 98.096,275.234 97.965,275.316 97.751 C 275.394 97.548,275.587 97.456,275.744 97.547 C 275.901 97.639,275.833 97.489,275.593 97.214 C 275.353 96.940,275.156 96.427,275.156 96.074 C 275.156 95.722,274.988 95.370,274.782 95.290 C 274.576 95.211,274.407 94.868,274.407 94.527 C 274.407 94.186,274.238 93.813,274.030 93.697 C 273.822 93.580,273.618 93.050,273.574 92.513 C 273.530 91.977,273.362 91.495,273.201 91.442 C 273.041 91.388,272.909 91.079,272.909 90.755 C 272.909 90.432,272.777 90.086,272.617 89.986 C 272.420 89.865,272.377 89.942,272.484 90.221 C 272.572 90.450,272.535 90.637,272.402 90.637 C 272.269 90.637,272.160 90.184,272.160 89.630 C 272.160 88.966,272.032 88.575,271.785 88.480 C 271.579 88.401,271.411 88.074,271.411 87.753 C 271.411 87.095,271.020 86.725,270.828 87.202 C 270.715 87.480,270.553 86.320,270.634 85.823 C 270.652 85.716,270.497 85.564,270.289 85.484 C 270.082 85.405,269.913 85.183,269.913 84.992 C 269.913 84.801,269.758 84.644,269.569 84.644 C 269.368 84.644,269.226 84.382,269.226 84.012 C 269.226 83.664,269.043 83.177,268.820 82.931 C 268.597 82.684,268.414 82.391,268.414 82.280 C 268.414 82.169,268.240 81.950,268.026 81.793 C 267.812 81.637,267.611 81.332,267.580 81.114 C 267.548 80.897,267.328 80.526,267.092 80.290 C 266.855 80.053,266.726 79.757,266.804 79.630 C 266.882 79.504,266.771 79.401,266.557 79.401 C 266.332 79.401,266.167 79.186,266.167 78.894 C 266.167 78.615,265.999 78.322,265.793 78.243 C 265.587 78.164,265.418 77.942,265.418 77.751 C 265.418 77.560,265.302 77.403,265.161 77.403 C 265.019 77.403,264.832 77.207,264.745 76.966 C 264.397 76.009,262.400 73.658,261.933 73.658 C 261.790 73.658,261.673 73.443,261.673 73.181 C 261.673 72.918,261.364 72.435,260.986 72.107 C 260.609 71.778,260.265 71.354,260.222 71.164 C 260.119 70.707,259.366 70.170,259.078 70.348 C 258.952 70.426,258.921 70.374,259.008 70.232 C 259.181 69.952,258.477 69.115,257.303 68.208 C 256.891 67.889,256.723 67.711,256.929 67.813 C 257.135 67.914,256.989 67.698,256.604 67.332 C 256.219 66.966,255.804 66.667,255.682 66.667 C 255.560 66.667,255.380 66.537,255.282 66.378 C 255.163 66.185,255.220 66.156,255.455 66.290 C 255.647 66.400,255.527 66.221,255.187 65.892 C 254.847 65.563,254.492 65.293,254.399 65.293 C 254.306 65.293,253.760 64.759,253.185 64.106 C 252.611 63.453,252.037 62.983,251.911 63.061 C 251.785 63.139,251.614 63.027,251.532 62.812 C 251.450 62.598,251.239 62.422,251.064 62.422 C 250.888 62.422,250.680 62.174,250.601 61.871 C 250.522 61.568,250.379 61.398,250.284 61.493 C 250.189 61.588,249.952 61.470,249.756 61.232 C 249.530 60.957,249.465 60.935,249.577 61.174 C 249.674 61.380,249.406 61.155,248.982 60.674 C 248.557 60.194,248.205 59.902,248.200 60.026 C 248.194 60.150,247.965 59.992,247.690 59.675 C 247.416 59.359,247.188 59.201,247.183 59.325 C 247.179 59.449,247.061 59.354,246.921 59.114 C 246.781 58.873,246.513 58.677,246.324 58.677 C 246.135 58.677,245.661 58.368,245.270 57.990 C 244.879 57.612,244.393 57.267,244.190 57.222 C 243.987 57.178,243.567 56.905,243.258 56.617 C 242.949 56.329,242.697 56.168,242.697 56.261 C 242.697 56.354,242.468 56.201,242.188 55.921 C 241.908 55.641,241.583 55.472,241.465 55.545 C 241.347 55.618,241.186 55.510,241.108 55.304 C 241.029 55.099,240.752 54.931,240.492 54.931 C 240.232 54.931,239.597 54.596,239.081 54.186 C 238.565 53.776,238.057 53.494,237.951 53.559 C 237.846 53.624,237.622 53.511,237.453 53.308 C 237.285 53.105,237.047 53.001,236.926 53.076 C 236.804 53.151,236.704 53.103,236.704 52.968 C 236.704 52.834,236.352 52.647,235.922 52.552 C 235.346 52.426,235.231 52.322,235.485 52.161 C 235.719 52.013,235.533 51.941,234.909 51.939 C 234.402 51.937,233.907 51.805,233.809 51.647 C 233.689 51.454,233.746 51.425,233.981 51.559 C 234.230 51.701,234.259 51.678,234.078 51.481 C 233.939 51.328,233.469 51.176,233.034 51.143 C 232.600 51.110,232.265 50.965,232.289 50.822 C 232.314 50.679,232.034 50.527,231.666 50.485 C 231.299 50.442,230.864 50.245,230.699 50.048 C 230.533 49.847,229.970 49.688,229.425 49.688 C 228.788 49.688,228.399 49.558,228.305 49.313 C 228.223 49.100,227.851 48.939,227.439 48.939 C 226.963 48.939,226.717 48.811,226.717 48.564 C 226.717 48.305,226.456 48.190,225.873 48.190 C 225.409 48.190,224.890 48.021,224.719 47.815 C 224.515 47.569,223.958 47.441,223.096 47.441 C 222.234 47.441,221.677 47.312,221.473 47.066 C 221.302 46.860,220.853 46.692,220.474 46.692 C 220.096 46.692,219.647 46.523,219.476 46.317 C 219.252 46.047,218.659 45.943,217.353 45.943 C 216.048 45.943,215.455 45.838,215.231 45.568 C 215.011 45.303,214.428 45.194,213.233 45.194 C 212.120 45.194,211.451 45.079,211.266 44.856 C 211.059 44.606,210.093 44.506,207.576 44.472 C 205.701 44.447,204.048 44.353,203.903 44.263 C 203.547 44.043,196.276 44.024,196.055 44.242 M150.262 111.161 C 150.685 111.584,150.663 115.211,150.235 115.566 C 150.056 115.715,148.735 115.869,147.301 115.908 L 144.694 115.980 144.629 124.920 C 144.549 135.781,144.759 135.081,141.573 135.081 C 138.387 135.081,138.597 135.781,138.518 124.920 L 138.452 115.980 135.964 115.908 C 132.859 115.818,132.584 115.629,132.584 113.581 C 132.584 112.785,132.715 111.847,132.874 111.497 L 133.164 110.861 141.563 110.861 C 147.763 110.861,150.041 110.940,150.262 111.161 M243.806 111.244 C 244.072 111.446,244.442 111.610,244.628 111.610 C 245.094 111.610,246.883 113.292,247.577 114.383 C 249.481 117.374,248.694 122.070,245.963 124.007 C 244.678 124.919,244.562 124.461,247.539 130.191 C 248.755 132.532,249.193 133.626,249.139 134.186 L 249.064 134.956 246.425 135.027 C 243.196 135.113,243.560 135.438,240.862 130.041 C 239.046 126.407,238.754 125.959,238.152 125.890 C 236.542 125.704,236.454 125.937,236.454 130.421 C 236.454 135.277,236.571 135.081,233.672 135.081 C 230.461 135.081,230.712 136.114,230.712 122.899 C 230.712 115.745,230.803 111.656,230.970 111.344 C 231.317 110.696,242.960 110.604,243.806 111.244 M267.541 113.358 L 267.541 115.730 264.607 115.801 L 261.673 115.871 261.673 125.084 C 261.673 135.954,261.935 135.081,258.668 135.081 C 255.719 135.081,255.930 135.858,255.930 124.985 L 255.930 115.855 253.233 115.855 C 249.977 115.855,249.938 115.826,249.938 113.454 C 249.938 110.580,248.999 110.846,258.892 110.921 L 267.541 110.986 267.541 113.358 M236.571 116.422 C 236.493 116.734,236.463 117.773,236.504 118.732 L 236.579 120.474 239.050 120.546 C 242.389 120.643,243.251 119.820,242.550 117.206 C 242.194 115.882,236.882 115.186,236.571 116.422 M158.599 117.345 C 161.398 118.583,163.296 121.959,163.296 125.700 C 163.296 127.790,163.159 127.840,157.470 127.840 L 152.755 127.840 152.913 128.471 C 153.360 130.252,156.316 130.894,158.302 129.642 C 159.521 128.873,159.823 128.933,161.271 130.235 C 163.173 131.945,162.630 133.120,159.230 134.655 C 158.186 135.126,152.714 135.284,152.446 134.851 C 152.368 134.724,151.993 134.552,151.612 134.468 C 146.904 133.434,145.611 122.691,149.728 118.807 C 151.854 116.801,155.873 116.139,158.599 117.345 M170.366 117.221 C 170.859 117.544,171.011 117.544,171.634 117.221 C 173.616 116.193,179.026 117.341,179.026 118.790 C 179.026 118.932,179.195 119.112,179.401 119.191 C 179.607 119.270,179.779 119.535,179.783 119.780 C 179.788 120.025,179.956 120.443,180.158 120.709 C 180.645 121.353,180.706 134.300,180.225 134.782 C 180.040 134.966,179.138 135.081,177.881 135.081 C 174.994 135.081,175.086 135.297,174.986 128.261 C 174.896 121.884,174.892 121.871,172.917 121.856 C 170.922 121.840,170.787 122.278,170.787 128.735 C 170.787 135.365,170.906 135.081,168.104 135.081 C 165.095 135.081,165.293 135.722,165.293 126.011 C 165.293 116.267,165.122 116.854,167.963 116.854 C 169.164 116.854,170.000 116.982,170.366 117.221 M193.999 117.273 C 196.970 118.373,197.286 119.171,195.478 121.002 C 194.178 122.318,192.949 122.793,192.709 122.073 C 192.452 121.302,188.015 121.526,188.015 122.310 C 188.015 122.978,188.888 123.289,191.247 123.461 C 192.407 123.546,193.474 123.709,193.619 123.825 C 193.764 123.940,194.163 124.120,194.506 124.225 C 197.708 125.210,198.365 130.512,195.616 133.184 C 193.330 135.405,186.129 135.868,183.559 133.958 C 181.634 132.526,181.640 131.823,183.596 130.025 C 185.110 128.633,184.989 128.656,186.333 129.505 C 188.015 130.566,192.010 130.440,192.010 129.326 C 192.010 128.846,191.158 128.340,190.352 128.340 C 189.115 128.340,185.268 127.554,185.268 127.302 C 185.268 127.186,185.105 127.091,184.905 127.091 C 184.331 127.091,183.212 125.503,182.854 124.179 C 182.165 121.632,183.913 117.997,186.082 117.467 C 186.461 117.374,186.833 117.198,186.908 117.076 C 187.166 116.660,192.763 116.815,193.999 117.273 M209.721 117.404 C 215.736 120.305,215.647 131.887,209.590 134.566 C 207.018 135.704,203.371 135.211,201.098 133.419 C 197.536 130.610,197.536 121.372,201.098 118.498 C 203.323 116.702,207.238 116.206,209.721 117.404 M221.285 117.284 C 221.736 117.692,221.801 117.692,222.511 117.284 C 223.821 116.533,227.331 116.692,228.589 117.560 C 230.003 118.535,229.969 118.983,228.342 120.781 C 226.754 122.535,226.199 122.806,225.340 122.243 C 224.628 121.777,223.259 121.738,222.703 122.168 C 221.831 122.843,221.620 124.124,221.483 129.588 L 221.348 134.956 219.264 135.029 C 217.942 135.075,217.052 134.996,216.830 134.811 C 216.354 134.417,216.306 117.627,216.779 117.154 C 217.270 116.663,220.709 116.763,221.285 117.284 M153.619 122.044 C 152.370 123.128,152.735 123.464,155.243 123.542 C 157.814 123.622,158.019 123.468,156.919 122.282 C 156.143 121.445,154.451 121.323,153.619 122.044 M204.810 122.339 C 203.746 123.330,203.740 128.394,204.801 129.523 C 205.558 130.330,206.962 130.292,207.759 129.443 C 208.606 128.542,208.681 123.651,207.865 122.542 C 207.231 121.680,205.632 121.574,204.810 122.339 " stroke="none" fill="#74bc04" fill-rule="evenodd"></path><path id="path1" d="M198.689 43.879 C 199.410 43.930,200.590 43.930,201.311 43.879 C 202.032 43.829,201.442 43.788,200.000 43.788 C 198.558 43.788,197.968 43.829,198.689 43.879 M84.290 54.400 C 84.216 54.519,83.819 54.684,83.409 54.766 C 82.652 54.918,81.648 55.724,81.648 56.180 C 81.648 56.317,81.479 56.429,81.273 56.429 C 81.027 56.429,80.899 56.676,80.899 57.148 C 80.899 57.543,80.730 58.006,80.524 58.177 C 80.308 58.357,80.150 58.901,80.150 59.464 C 80.150 60.101,80.280 60.490,80.524 60.584 C 80.730 60.663,80.899 61.025,80.900 61.388 C 80.901 62.111,82.188 63.670,82.784 63.670 C 83.090 63.670,83.146 64.611,83.146 69.779 C 83.146 75.563,83.172 75.901,83.629 76.146 C 84.493 76.608,131.067 76.495,131.246 76.030 C 131.325 75.824,131.546 75.655,131.737 75.655 C 131.928 75.655,132.085 75.531,132.085 75.379 C 132.085 75.227,132.422 74.677,132.834 74.157 C 133.391 73.454,133.583 72.949,133.583 72.186 L 133.583 71.161 110.861 71.161 L 88.140 71.161 88.140 67.416 C 88.140 64.253,88.198 63.670,88.514 63.670 C 88.720 63.670,88.889 63.502,88.889 63.296 C 88.889 63.090,89.057 62.921,89.263 62.921 C 89.469 62.921,89.638 62.709,89.638 62.449 C 89.638 62.189,89.806 61.911,90.012 61.832 C 90.307 61.719,90.387 61.211,90.387 59.460 C 90.387 57.710,90.307 57.201,90.012 57.088 C 89.806 57.009,89.638 56.732,89.638 56.471 C 89.638 55.903,87.967 54.682,87.190 54.682 C 86.888 54.682,86.642 54.569,86.642 54.432 C 86.642 54.126,84.477 54.096,84.290 54.400 M23.859 68.642 C 23.766 68.792,23.312 68.914,22.850 68.914 C 22.387 68.914,21.840 69.082,21.634 69.288 C 21.428 69.494,21.160 69.663,21.039 69.663 C 20.660 69.663,19.726 71.112,19.717 71.713 C 19.713 72.027,19.544 72.503,19.343 72.769 C 18.875 73.387,18.875 74.178,19.343 74.796 C 19.544 75.063,19.713 75.482,19.717 75.728 C 19.729 76.355,20.739 77.665,21.411 77.924 L 21.973 78.140 21.973 89.398 C 21.973 96.682,22.064 100.828,22.231 101.140 C 22.484 101.612,23.004 101.623,45.327 101.623 L 68.165 101.623 68.165 113.569 C 68.165 124.826,68.191 125.539,68.621 125.929 C 69.039 126.307,71.054 126.342,92.475 126.342 L 115.873 126.342 115.801 123.783 L 115.730 121.223 94.569 121.160 L 73.408 121.096 73.408 111.359 L 73.408 101.623 95.943 101.615 C 120.680 101.606,119.600 101.671,119.600 100.178 C 119.600 99.908,119.769 99.547,119.975 99.376 C 120.210 99.181,120.350 98.631,120.350 97.901 C 120.350 95.732,122.119 95.880,96.157 95.880 L 73.414 95.880 73.349 86.205 L 73.283 76.529 65.106 76.464 C 58.067 76.407,56.929 76.346,56.929 76.027 C 56.929 75.822,56.760 75.655,56.554 75.655 C 56.348 75.655,56.180 75.487,56.180 75.281 C 56.180 75.075,56.052 74.906,55.895 74.906 C 55.739 74.906,55.486 74.746,55.333 74.551 C 54.863 73.948,50.448 73.933,49.848 74.532 C 49.642 74.738,49.353 74.906,49.206 74.906 C 49.059 74.906,48.939 75.063,48.939 75.254 C 48.939 75.445,48.781 75.663,48.588 75.737 C 48.395 75.811,48.161 76.216,48.069 76.637 C 47.976 77.059,47.797 77.403,47.671 77.403 C 47.544 77.403,47.441 78.134,47.441 79.026 C 47.441 79.919,47.544 80.649,47.671 80.649 C 47.797 80.649,47.976 80.994,48.069 81.415 C 48.161 81.836,48.395 82.242,48.588 82.316 C 48.781 82.390,48.940 82.579,48.942 82.736 C 48.952 83.748,55.044 84.431,55.369 83.457 C 55.426 83.286,55.632 83.146,55.826 83.146 C 56.021 83.146,56.180 82.978,56.180 82.772 C 56.180 82.566,56.348 82.397,56.554 82.397 C 56.760 82.397,56.929 82.228,56.929 82.022 C 56.929 81.701,57.720 81.648,62.547 81.648 L 68.165 81.648 68.165 88.764 L 68.165 95.880 47.690 95.880 L 27.216 95.880 27.227 86.954 L 27.237 78.027 27.976 77.415 C 28.382 77.078,28.714 76.705,28.714 76.586 C 28.714 76.466,28.883 76.200,29.089 75.994 C 29.358 75.725,29.463 75.070,29.463 73.671 C 29.463 72.243,29.363 71.638,29.089 71.411 C 28.883 71.240,28.714 70.945,28.714 70.756 C 28.714 70.567,28.546 70.412,28.340 70.412 C 28.134 70.412,27.965 70.243,27.965 70.037 C 27.965 69.831,27.809 69.663,27.617 69.663 C 27.426 69.663,27.210 69.507,27.136 69.316 C 27.063 69.126,26.574 68.914,26.049 68.845 C 25.523 68.777,24.854 68.642,24.560 68.546 C 24.255 68.446,23.954 68.487,23.859 68.642 M358.213 69.288 C 358.007 69.494,357.753 69.663,357.649 69.663 C 357.097 69.663,355.808 70.842,355.807 71.348 L 355.805 71.910 311.533 71.910 C 264.304 71.910,265.705 71.875,266.666 73.033 C 267.080 73.532,267.538 74.298,267.898 75.094 C 268.038 75.403,268.268 75.655,268.408 75.655 C 268.549 75.655,268.664 75.824,268.664 76.030 C 268.664 76.361,273.672 76.404,312.235 76.404 C 353.562 76.404,355.805 76.427,355.810 76.841 C 355.820 77.870,358.450 79.401,360.206 79.401 C 361.730 79.401,364.544 77.602,364.544 76.628 C 364.544 76.485,364.713 76.200,364.919 75.994 C 365.167 75.747,365.293 75.124,365.293 74.157 C 365.293 73.190,365.167 72.568,364.919 72.320 C 364.713 72.114,364.544 71.754,364.544 71.520 C 364.544 69.863,359.438 68.063,358.213 69.288 M308.954 94.757 C 308.875 94.963,308.654 95.131,308.463 95.131 C 308.271 95.131,308.115 95.282,308.115 95.467 C 308.115 96.616,308.056 96.621,293.491 96.689 L 279.775 96.754 279.794 97.988 C 279.805 98.696,279.938 99.263,280.106 99.320 C 280.267 99.373,280.400 99.689,280.400 100.021 C 280.400 101.670,279.979 101.623,294.697 101.623 L 307.996 101.623 308.243 102.164 C 308.378 102.462,308.714 102.827,308.989 102.976 C 309.263 103.124,309.578 103.386,309.688 103.558 C 309.823 103.769,310.605 103.870,312.110 103.870 C 313.615 103.870,314.397 103.769,314.532 103.558 C 314.642 103.386,314.956 103.124,315.231 102.976 C 315.506 102.827,315.841 102.462,315.977 102.164 C 316.112 101.867,316.365 101.623,316.539 101.623 C 317.034 101.623,316.979 96.545,316.479 96.130 C 316.273 95.959,316.105 95.664,316.105 95.475 C 316.105 95.286,315.948 95.131,315.757 95.131 C 315.566 95.131,315.345 94.963,315.266 94.757 C 315.149 94.452,314.557 94.382,312.110 94.382 C 309.663 94.382,309.071 94.452,308.954 94.757 M329.249 119.226 C 329.043 119.432,328.775 119.600,328.654 119.600 C 328.533 119.600,328.185 119.937,327.881 120.348 L 327.328 121.096 305.799 121.160 L 284.270 121.223 284.270 123.720 L 284.270 126.217 305.799 126.281 L 327.328 126.345 327.881 127.093 C 328.185 127.504,328.567 127.840,328.730 127.840 C 328.894 127.840,329.167 128.009,329.338 128.215 C 329.576 128.502,330.229 128.589,332.123 128.589 C 334.092 128.589,334.627 128.513,334.741 128.215 C 334.820 128.009,335.041 127.840,335.233 127.840 C 335.424 127.840,335.581 127.672,335.581 127.466 C 335.581 127.260,335.749 127.091,335.955 127.091 C 336.161 127.091,336.330 126.915,336.330 126.699 C 336.330 126.483,336.498 126.138,336.704 125.932 C 336.969 125.667,337.079 125.020,337.079 123.720 C 337.079 122.420,336.969 121.774,336.704 121.509 C 336.498 121.303,336.330 121.045,336.330 120.935 C 336.330 120.826,335.852 120.312,335.268 119.794 L 334.207 118.852 331.915 118.852 C 330.211 118.852,329.528 118.947,329.249 119.226 M48.280 140.949 C 48.201 141.155,48.000 141.323,47.834 141.323 C 46.188 141.323,44.839 147.390,46.255 148.425 C 46.495 148.600,46.692 148.872,46.692 149.029 C 46.692 149.185,46.860 149.313,47.066 149.313 C 47.272 149.313,47.441 149.482,47.441 149.688 C 47.441 149.894,47.553 150.062,47.690 150.062 C 47.854 150.062,47.940 154.385,47.940 162.531 C 47.940 170.027,48.037 175.254,48.184 175.639 L 48.427 176.280 65.038 176.280 L 81.648 176.280 81.648 184.519 C 81.648 191.677,81.599 192.759,81.273 192.759 C 81.067 192.759,80.899 192.928,80.899 193.134 C 80.899 193.340,80.730 193.508,80.524 193.508 C 80.275 193.508,80.150 193.758,80.150 194.257 C 80.150 194.757,80.025 195.006,79.775 195.006 C 79.478 195.006,79.401 195.367,79.401 196.754 C 79.401 198.141,79.478 198.502,79.775 198.502 C 80.025 198.502,80.150 198.752,80.150 199.251 C 80.150 199.750,80.275 200.000,80.524 200.000 C 80.730 200.000,80.899 200.169,80.899 200.375 C 80.899 200.581,81.055 200.749,81.247 200.749 C 81.438 200.749,81.659 200.918,81.738 201.124 C 81.853 201.424,82.405 201.498,84.519 201.498 C 86.633 201.498,87.185 201.424,87.300 201.124 C 87.380 200.918,87.601 200.749,87.792 200.749 C 87.983 200.749,88.140 200.581,88.140 200.375 C 88.140 200.169,88.308 200.000,88.514 200.000 C 88.761 200.000,88.889 199.753,88.889 199.278 C 88.889 198.866,89.050 198.494,89.263 198.412 C 89.542 198.305,89.638 197.860,89.638 196.668 C 89.638 195.550,89.525 194.974,89.263 194.757 C 89.057 194.586,88.889 194.235,88.889 193.977 C 88.889 193.719,88.720 193.508,88.514 193.508 C 88.308 193.508,88.140 193.340,88.140 193.134 C 88.140 192.928,87.971 192.759,87.765 192.759 C 87.440 192.759,87.391 191.677,87.391 184.519 L 87.391 176.280 110.112 176.280 L 132.834 176.280 132.834 175.062 C 132.834 174.284,132.699 173.732,132.459 173.533 C 132.253 173.362,132.085 173.067,132.085 172.878 C 132.085 172.689,131.916 172.534,131.710 172.534 C 131.504 172.534,131.336 172.383,131.336 172.198 C 131.336 171.005,131.946 171.036,108.907 171.036 L 87.391 171.036 87.391 160.926 L 87.391 150.815 103.808 150.751 L 120.225 150.687 120.306 149.978 C 120.350 149.588,120.219 149.083,120.013 148.854 C 119.808 148.626,119.603 148.046,119.558 147.566 L 119.476 146.692 100.901 146.628 C 87.387 146.581,82.235 146.640,81.988 146.845 C 81.710 147.076,81.648 149.306,81.648 159.082 L 81.648 171.036 67.416 171.036 L 53.184 171.036 53.184 160.609 L 53.184 150.182 53.933 149.563 C 54.345 149.223,54.682 148.816,54.682 148.660 C 54.682 148.504,54.850 148.236,55.056 148.065 C 55.341 147.829,55.431 147.188,55.431 145.405 C 55.431 143.547,55.352 143.025,55.056 142.912 C 54.850 142.833,54.682 142.612,54.682 142.420 C 54.682 142.229,54.513 142.072,54.307 142.072 C 54.101 142.072,53.933 141.904,53.933 141.698 C 53.933 141.492,53.756 141.323,53.540 141.323 C 53.324 141.323,52.979 141.155,52.773 140.949 C 52.503 140.679,51.845 140.574,50.411 140.574 C 48.875 140.574,48.391 140.659,48.280 140.949 M364.794 143.945 C 364.794 144.151,364.573 144.320,364.302 144.320 C 364.032 144.320,363.561 144.657,363.256 145.069 L 362.703 145.818 322.163 145.818 L 281.624 145.818 281.012 146.478 C 280.615 146.907,280.400 147.434,280.400 147.977 C 280.400 148.437,280.300 148.814,280.179 148.814 C 279.910 148.814,279.654 150.030,279.828 150.484 C 279.931 150.753,287.349 150.811,321.070 150.811 C 366.098 150.811,363.046 150.721,363.046 152.063 C 363.046 152.199,363.203 152.310,363.394 152.310 C 363.585 152.310,363.807 152.478,363.886 152.684 C 363.965 152.890,364.244 153.059,364.506 153.059 C 364.768 153.059,365.122 153.227,365.293 153.433 C 365.506 153.689,366.073 153.808,367.080 153.808 C 368.161 153.808,368.593 153.708,368.699 153.433 C 368.778 153.227,369.086 153.059,369.384 153.059 C 369.964 153.059,371.286 151.739,371.286 151.160 C 371.286 150.968,371.454 150.811,371.660 150.811 C 371.964 150.811,372.035 150.413,372.035 148.720 C 372.035 147.165,371.939 146.548,371.660 146.317 C 371.454 146.146,371.286 145.795,371.286 145.537 C 371.286 145.280,371.117 145.069,370.911 145.069 C 370.705 145.069,370.537 144.900,370.537 144.694 C 370.537 144.444,370.287 144.320,369.788 144.320 C 369.288 144.320,369.039 144.195,369.039 143.945 C 369.039 143.642,368.636 143.571,366.916 143.571 C 365.196 143.571,364.794 143.642,364.794 143.945 M302.283 168.414 C 302.077 168.620,301.581 168.789,301.180 168.789 C 300.424 168.789,299.126 169.702,299.126 170.233 C 299.126 170.400,299.098 170.561,299.064 170.589 C 299.029 170.618,292.412 170.703,284.358 170.777 C 268.648 170.921,268.664 170.920,268.664 172.172 C 268.664 172.342,268.496 172.546,268.290 172.625 C 268.084 172.704,267.915 172.927,267.915 173.120 C 267.915 173.314,267.747 173.612,267.541 173.783 C 267.008 174.225,267.077 175.343,267.668 175.850 C 268.132 176.247,269.363 176.280,283.648 176.280 C 297.240 176.280,299.126 176.325,299.126 176.654 C 299.126 176.860,299.295 177.029,299.501 177.029 C 299.707 177.029,299.875 177.197,299.875 177.403 C 299.875 177.609,300.052 177.778,300.268 177.778 C 300.483 177.778,300.828 177.946,301.034 178.152 C 302.167 179.285,305.942 178.332,307.286 176.576 C 308.152 175.443,308.430 172.149,307.753 171.036 C 307.545 170.693,307.303 170.215,307.216 169.975 C 307.129 169.735,306.914 169.538,306.739 169.538 C 306.564 169.538,306.356 169.370,306.277 169.164 C 306.183 168.919,305.794 168.789,305.153 168.789 C 304.512 168.789,304.124 168.659,304.030 168.414 C 303.951 168.208,303.609 168.040,303.272 168.040 C 302.934 168.040,302.489 168.208,302.283 168.414 M198.689 204.429 C 199.410 204.479,200.590 204.479,201.311 204.429 C 202.032 204.378,201.442 204.337,200.000 204.337 C 198.558 204.337,197.968 204.378,198.689 204.429 " stroke="none" fill="#040404" fill-rule="evenodd"></path><path id="path2" d="M198.814 44.129 C 199.466 44.180,200.534 44.180,201.186 44.129 C 201.838 44.077,201.305 44.035,200.000 44.035 C 198.695 44.035,198.162 44.077,198.814 44.129 M133.583 113.329 C 133.583 115.365,133.554 115.347,136.841 115.352 C 139.809 115.357,139.576 114.530,139.576 125.019 L 139.576 134.082 141.573 134.082 L 143.571 134.082 143.574 125.031 C 143.576 120.053,143.665 115.844,143.771 115.677 C 143.898 115.477,144.896 115.349,146.701 115.302 L 149.438 115.231 149.512 113.421 L 149.585 111.610 141.584 111.610 L 133.583 111.610 133.583 113.329 M231.831 111.905 C 231.762 112.087,231.734 117.122,231.770 123.096 L 231.835 133.958 233.833 133.958 L 235.830 133.958 235.955 129.588 L 236.080 125.218 237.537 125.143 C 239.427 125.045,239.318 124.922,241.726 129.851 L 243.794 134.082 246.117 134.082 C 247.394 134.082,248.439 134.011,248.439 133.925 C 248.439 133.838,247.914 132.742,247.273 131.490 C 243.787 124.688,243.888 124.918,244.173 124.386 C 244.322 124.107,244.648 123.814,244.896 123.735 C 249.032 122.423,248.612 114.565,244.288 112.357 C 242.823 111.609,232.094 111.220,231.831 111.905 M250.853 111.777 C 250.543 112.087,250.674 114.785,251.013 115.066 C 251.193 115.215,252.513 115.370,253.947 115.409 L 256.554 115.481 256.679 124.719 L 256.804 133.958 258.739 134.030 C 259.803 134.071,260.699 134.071,260.729 134.030 C 260.759 133.990,260.843 129.800,260.916 124.719 L 261.049 115.481 263.670 115.412 C 266.809 115.331,267.675 114.378,266.765 112.005 C 266.607 111.594,251.257 111.373,250.853 111.777 M242.302 115.734 C 245.609 118.236,243.390 121.702,238.577 121.551 L 236.080 121.473 236.009 118.743 C 235.969 117.241,235.994 115.864,236.063 115.684 C 236.251 115.194,241.646 115.238,242.302 115.734 M153.683 117.723 C 149.826 118.438,148.217 120.858,148.202 125.968 C 148.189 130.201,148.977 131.991,151.519 133.505 C 153.049 134.416,157.790 134.554,159.301 133.732 C 161.789 132.378,161.929 132.059,160.604 130.765 L 159.660 129.844 158.544 130.435 C 155.705 131.939,152.547 130.990,151.907 128.442 C 151.596 127.203,151.960 127.107,157.267 127.034 L 162.172 126.966 162.245 125.191 C 162.452 120.130,158.639 116.804,153.683 117.723 M173.039 117.651 C 172.424 117.791,171.696 118.062,171.423 118.253 C 170.772 118.709,170.058 118.697,169.878 118.227 C 169.615 117.542,166.390 117.706,166.200 118.414 C 166.003 119.147,166.003 132.788,166.200 133.521 C 166.337 134.034,166.498 134.082,168.069 134.082 L 169.788 134.082 169.789 129.276 C 169.791 122.097,170.772 120.105,173.811 121.108 C 175.767 121.753,175.894 122.188,175.985 128.537 L 176.064 134.104 177.857 134.031 L 179.650 133.958 179.650 127.591 C 179.650 119.319,179.176 118.336,174.782 117.514 C 174.438 117.450,173.654 117.511,173.039 117.651 M188.140 117.694 C 181.226 119.110,182.072 127.280,189.139 127.331 C 191.676 127.349,193.112 128.383,192.535 129.776 C 191.909 131.286,188.834 131.606,186.329 130.421 L 184.923 129.756 183.842 130.951 C 182.598 132.325,182.648 132.511,184.504 133.448 C 188.324 135.375,194.305 134.331,195.934 131.454 C 197.928 127.933,195.843 124.940,190.899 124.227 C 188.016 123.811,187.266 123.447,187.266 122.461 C 187.266 120.869,189.931 120.037,192.111 120.948 C 193.493 121.525,193.884 121.455,194.890 120.449 C 195.935 119.404,195.882 119.051,194.581 118.396 C 193.734 117.969,193.064 117.823,190.387 117.482 C 189.975 117.430,188.964 117.525,188.140 117.694 M204.579 117.708 C 201.033 118.402,199.268 121.146,199.268 125.968 C 199.268 131.864,201.999 134.731,207.156 134.249 C 211.365 133.856,213.050 131.488,213.050 125.968 C 213.050 120.770,211.524 118.350,207.854 117.727 C 207.311 117.635,206.698 117.525,206.492 117.483 C 206.286 117.442,205.425 117.543,204.579 117.708 M224.345 117.651 C 223.795 117.762,222.924 118.039,222.409 118.266 C 221.534 118.651,221.441 118.650,221.003 118.253 C 220.636 117.922,220.157 117.845,218.818 117.903 L 217.104 117.978 217.104 125.968 L 217.104 133.958 218.976 133.958 L 220.849 133.958 220.974 128.297 C 221.096 122.748,221.111 122.623,221.697 121.999 C 222.623 121.015,223.671 120.766,224.966 121.222 C 226.317 121.699,228.714 120.137,228.714 118.779 C 228.714 118.062,225.900 117.336,224.345 117.651 M156.505 120.948 C 157.965 121.703,158.962 123.677,158.174 124.253 C 157.485 124.757,152.485 124.732,152.063 124.223 C 150.697 122.578,154.391 119.855,156.505 120.948 M207.913 121.482 C 210.202 122.982,209.812 129.525,207.364 130.680 C 204.804 131.888,203.245 130.114,203.247 125.993 C 203.248 121.593,205.202 119.705,207.913 121.482 M198.814 204.179 C 199.466 204.230,200.534 204.230,201.186 204.179 C 201.838 204.127,201.305 204.085,200.000 204.085 C 198.695 204.085,198.162 204.127,198.814 204.179 " stroke="none" fill="#f3f8eb" fill-rule="evenodd"></path><path id="path3" d="M132.874 111.497 C 132.715 111.847,132.584 112.785,132.584 113.581 C 132.584 115.629,132.859 115.818,135.964 115.908 L 138.452 115.980 138.518 124.920 C 138.597 135.781,138.387 135.081,141.573 135.081 C 144.759 135.081,144.549 135.781,144.629 124.920 L 144.694 115.980 147.301 115.908 C 150.528 115.820,150.562 115.793,150.562 113.378 C 150.562 110.672,151.240 110.861,141.563 110.861 L 133.164 110.861 132.874 111.497 M230.970 111.344 C 230.803 111.656,230.712 115.745,230.712 122.899 C 230.712 136.114,230.461 135.081,233.672 135.081 C 236.571 135.081,236.454 135.277,236.454 130.421 C 236.454 125.937,236.542 125.704,238.152 125.890 C 238.754 125.959,239.046 126.407,240.862 130.041 C 243.560 135.438,243.196 135.113,246.425 135.027 L 249.064 134.956 249.139 134.186 C 249.193 133.626,248.755 132.532,247.539 130.191 C 244.562 124.461,244.678 124.919,245.963 124.007 C 248.694 122.070,249.481 117.374,247.577 114.383 C 246.883 113.292,245.094 111.610,244.628 111.610 C 244.442 111.610,244.072 111.446,243.806 111.244 C 242.960 110.604,231.317 110.696,230.970 111.344 M250.090 111.253 C 249.813 111.975,249.925 115.243,250.237 115.556 C 250.433 115.752,251.469 115.855,253.233 115.855 L 255.930 115.855 255.930 124.985 C 255.930 135.858,255.719 135.081,258.668 135.081 C 261.935 135.081,261.673 135.954,261.673 125.084 L 261.673 115.871 264.607 115.801 L 267.541 115.730 267.541 113.358 L 267.541 110.986 258.892 110.921 C 251.168 110.862,250.227 110.898,250.090 111.253 M149.911 111.506 C 150.201 112.262,150.074 115.036,149.736 115.316 C 149.556 115.465,148.236 115.619,146.802 115.659 L 144.195 115.730 144.129 124.822 C 144.054 135.312,144.245 134.582,141.573 134.582 C 138.901 134.582,139.093 135.312,139.017 124.822 L 138.951 115.730 136.344 115.659 C 133.216 115.573,133.084 115.488,133.084 113.561 C 133.084 110.920,132.412 111.111,141.680 111.111 C 148.817 111.111,149.777 111.157,149.911 111.506 M243.457 111.513 C 246.307 112.445,248.190 115.165,248.190 118.350 C 248.190 121.011,247.639 122.039,245.069 124.178 L 244.320 124.801 246.629 129.297 C 249.443 134.773,249.458 134.622,246.100 134.528 L 243.571 134.457 241.519 130.366 C 239.121 125.584,238.939 125.343,237.714 125.343 C 236.259 125.343,236.205 125.510,236.205 129.963 C 236.205 132.756,236.113 134.074,235.905 134.282 C 235.364 134.823,231.778 134.675,231.469 134.099 C 231.129 133.463,231.115 112.644,231.454 111.752 L 231.698 111.111 236.963 111.111 C 241.128 111.111,242.485 111.195,243.457 111.513 M267.116 111.411 C 267.533 111.828,267.512 114.965,267.089 115.316 C 266.910 115.465,265.589 115.619,264.155 115.659 L 261.548 115.730 261.423 124.916 C 261.281 135.416,261.509 134.574,258.801 134.574 C 256.094 134.574,256.322 135.416,256.180 124.916 L 256.055 115.730 253.448 115.659 C 250.319 115.573,250.187 115.488,250.187 113.561 C 250.187 110.920,249.519 111.111,258.760 111.111 C 264.693 111.111,266.895 111.190,267.116 111.411 M236.392 115.751 C 235.815 116.328,236.199 120.859,236.845 121.105 C 240.782 122.601,244.896 119.265,242.468 116.546 C 241.742 115.733,237.027 115.116,236.392 115.751 M241.470 116.270 C 242.458 116.705,242.688 117.146,242.693 118.621 C 242.699 120.245,241.968 120.631,239.050 120.546 L 236.579 120.474 236.504 118.732 C 236.381 115.865,236.388 115.855,238.622 115.855 C 239.857 115.855,240.863 116.002,241.470 116.270 M151.561 117.499 C 146.465 120.396,145.526 129.400,149.902 133.388 C 150.462 133.899,151.232 134.385,151.612 134.468 C 151.993 134.552,152.368 134.724,152.446 134.851 C 152.714 135.284,158.186 135.126,159.230 134.655 C 162.630 133.120,163.173 131.945,161.271 130.235 C 159.823 128.933,159.521 128.873,158.302 129.642 C 156.316 130.894,153.360 130.252,152.913 128.471 L 152.755 127.840 157.470 127.840 C 163.159 127.840,163.296 127.790,163.296 125.700 C 163.296 121.959,161.398 118.583,158.599 117.345 C 156.834 116.564,153.059 116.647,151.561 117.499 M165.707 117.311 C 165.340 117.716,165.293 118.690,165.293 126.011 C 165.293 135.722,165.095 135.081,168.104 135.081 C 170.906 135.081,170.787 135.365,170.787 128.735 C 170.787 122.278,170.922 121.840,172.917 121.856 C 174.892 121.871,174.896 121.884,174.986 128.261 C 175.086 135.297,174.994 135.081,177.881 135.081 C 179.138 135.081,180.040 134.966,180.225 134.782 C 180.706 134.300,180.645 121.353,180.158 120.709 C 179.956 120.443,179.788 120.025,179.783 119.780 C 179.779 119.535,179.607 119.270,179.401 119.191 C 179.195 119.112,179.026 118.932,179.026 118.790 C 179.026 117.341,173.616 116.193,171.634 117.221 C 171.011 117.544,170.859 117.544,170.366 117.221 C 169.502 116.655,166.243 116.718,165.707 117.311 M186.908 117.076 C 186.833 117.198,186.461 117.374,186.082 117.467 C 183.913 117.997,182.165 121.632,182.854 124.179 C 183.212 125.503,184.331 127.091,184.905 127.091 C 185.105 127.091,185.268 127.186,185.268 127.302 C 185.268 127.554,189.115 128.340,190.352 128.340 C 191.158 128.340,192.010 128.846,192.010 129.326 C 192.010 130.440,188.015 130.566,186.333 129.505 C 184.989 128.656,185.110 128.633,183.596 130.025 C 181.640 131.823,181.634 132.526,183.559 133.958 C 186.129 135.868,193.330 135.405,195.616 133.184 C 198.365 130.512,197.708 125.210,194.506 124.225 C 194.163 124.120,193.764 123.940,193.619 123.825 C 193.474 123.709,192.407 123.546,191.247 123.461 C 188.888 123.289,188.015 122.978,188.015 122.310 C 188.015 121.526,192.452 121.302,192.709 122.073 C 192.949 122.793,194.178 122.318,195.478 121.002 C 197.286 119.171,196.970 118.373,193.999 117.273 C 192.763 116.815,187.166 116.660,186.908 117.076 M202.871 117.289 C 199.568 118.974,198.627 120.899,198.627 125.968 C 198.627 132.420,200.844 135.081,206.219 135.081 C 212.405 135.081,215.734 129.027,213.550 121.749 C 212.381 117.852,206.545 115.415,202.871 117.289 M216.779 117.154 C 216.306 117.627,216.354 134.417,216.830 134.811 C 217.052 134.996,217.942 135.075,219.264 135.029 L 221.348 134.956 221.396 134.082 C 221.437 133.346,221.415 133.307,221.260 133.833 C 221.083 134.435,221.001 134.457,218.965 134.457 L 216.854 134.457 216.854 125.968 L 216.854 117.478 218.906 117.406 C 220.676 117.343,220.997 117.396,221.244 117.793 C 221.521 118.236,221.576 118.232,222.688 117.686 C 224.645 116.727,227.930 117.061,228.885 118.315 C 229.371 118.954,229.289 119.185,228.152 120.380 C 226.453 122.167,226.414 122.184,225.134 121.750 C 223.157 121.078,221.478 122.047,221.501 123.845 L 221.513 124.719 221.908 123.596 C 222.520 121.855,223.911 121.307,225.340 122.243 C 226.199 122.806,226.754 122.535,228.342 120.781 C 229.969 118.983,230.003 118.535,228.589 117.560 C 227.331 116.692,223.821 116.533,222.511 117.284 C 221.801 117.692,221.736 117.692,221.285 117.284 C 220.709 116.763,217.270 116.663,216.779 117.154 M157.814 117.506 C 160.813 118.486,162.553 121.151,162.627 124.875 C 162.684 127.719,162.962 127.582,157.116 127.587 C 151.726 127.591,151.693 127.605,152.871 129.345 C 153.913 130.881,156.039 131.178,158.182 130.085 C 160.380 128.964,162.962 131.437,161.236 133.009 C 157.828 136.113,150.665 135.118,148.677 131.264 C 144.756 123.661,150.444 115.095,157.814 117.506 M176.376 117.411 C 179.535 118.355,180.275 120.391,180.275 128.149 C 180.275 134.904,180.394 134.582,177.903 134.582 C 175.426 134.582,175.531 134.841,175.531 128.684 C 175.531 122.637,175.382 122.038,173.779 121.600 C 170.954 120.829,170.458 121.826,170.333 128.530 C 170.216 134.785,170.292 134.582,168.059 134.582 C 165.649 134.582,165.793 135.129,165.793 125.968 C 165.793 120.067,165.872 117.874,166.092 117.653 C 166.514 117.231,169.332 117.276,170.183 117.718 C 170.573 117.920,171.002 117.990,171.148 117.876 C 172.104 117.127,174.664 116.899,176.376 117.411 M193.134 117.442 C 196.282 118.281,196.787 119.235,195.005 120.975 L 194.006 121.951 192.821 121.606 C 189.883 120.753,187.765 121.072,187.765 122.369 C 187.765 123.273,188.193 123.488,190.403 123.699 C 195.192 124.154,196.824 125.521,196.839 129.090 C 196.857 133.712,191.054 136.322,185.322 134.268 C 182.451 133.240,181.957 132.416,183.322 130.935 C 184.750 129.385,185.025 129.272,186.042 129.812 C 188.900 131.331,192.260 130.875,192.260 128.967 C 192.260 128.372,190.833 127.879,188.566 127.690 C 184.889 127.383,183.014 125.704,183.027 122.731 C 183.045 118.506,187.796 116.020,193.134 117.442 M208.617 117.420 C 214.402 119.201,215.782 129.770,210.705 133.419 C 205.027 137.501,198.876 133.626,198.876 125.968 C 198.876 119.263,202.961 115.678,208.617 117.420 M153.748 121.489 C 152.978 121.907,152.204 123.210,152.409 123.743 C 152.513 124.015,153.141 124.095,155.173 124.095 L 157.803 124.095 157.803 123.454 C 157.803 121.591,155.562 120.505,153.748 121.489 M205.086 121.698 C 202.962 122.649,202.935 129.557,205.053 130.232 C 207.496 131.011,208.989 129.394,208.989 125.968 C 208.989 122.526,207.318 120.699,205.086 121.698 M156.919 122.282 C 158.019 123.468,157.814 123.622,155.243 123.542 C 153.105 123.476,152.940 123.434,153.019 122.980 C 153.276 121.511,155.787 121.061,156.919 122.282 M207.865 122.542 C 208.681 123.651,208.606 128.542,207.759 129.443 C 205.570 131.773,203.529 128.864,204.107 124.237 C 204.402 121.876,206.634 120.869,207.865 122.542 " stroke="none" fill="#8ec52b" fill-rule="evenodd"></path><path id="path4" d="M133.342 111.594 C 132.966 112.297,133.015 114.988,133.410 115.316 C 133.590 115.465,134.910 115.619,136.344 115.659 L 138.951 115.730 139.017 124.822 C 139.093 135.312,138.901 134.582,141.573 134.582 C 144.245 134.582,144.054 135.312,144.129 124.822 L 144.195 115.730 146.802 115.659 C 149.953 115.572,150.062 115.499,150.062 113.473 C 150.062 110.885,150.865 111.111,141.680 111.111 C 133.948 111.111,133.589 111.132,133.342 111.594 M231.454 111.752 C 231.115 112.644,231.129 133.463,231.469 134.099 C 231.778 134.675,235.364 134.823,235.905 134.282 C 236.113 134.074,236.205 132.756,236.205 129.963 C 236.205 125.510,236.259 125.343,237.714 125.343 C 238.939 125.343,239.121 125.584,241.519 130.366 L 243.571 134.457 246.100 134.528 C 249.458 134.622,249.443 134.773,246.629 129.297 L 244.320 124.801 245.069 124.178 C 247.639 122.039,248.190 121.011,248.190 118.350 C 248.190 112.916,245.391 111.111,236.963 111.111 L 231.698 111.111 231.454 111.752 M250.446 111.594 C 250.069 112.297,250.119 114.988,250.514 115.316 C 250.693 115.465,252.014 115.619,253.448 115.659 L 256.055 115.730 256.180 124.916 C 256.322 135.416,256.094 134.574,258.801 134.574 C 261.509 134.574,261.281 135.416,261.423 124.916 L 261.548 115.730 264.155 115.659 C 265.589 115.619,266.910 115.465,267.089 115.316 C 267.512 114.965,267.533 111.828,267.116 111.411 C 266.531 110.826,250.764 110.999,250.446 111.594 M149.512 113.421 L 149.438 115.231 146.701 115.302 C 144.896 115.349,143.898 115.477,143.771 115.677 C 143.665 115.844,143.576 120.053,143.574 125.031 L 143.571 134.082 141.573 134.082 L 139.576 134.082 139.576 125.019 C 139.576 114.530,139.809 115.357,136.841 115.352 C 133.554 115.347,133.583 115.365,133.583 113.329 L 133.583 111.610 141.584 111.610 L 149.585 111.610 149.512 113.421 M244.288 112.357 C 248.612 114.565,249.032 122.423,244.896 123.735 C 244.648 123.814,244.322 124.107,244.173 124.386 C 243.888 124.918,243.787 124.688,247.273 131.490 C 247.914 132.742,248.439 133.838,248.439 133.925 C 248.439 134.011,247.394 134.082,246.117 134.082 L 243.794 134.082 241.726 129.851 C 239.318 124.922,239.427 125.045,237.537 125.143 L 236.080 125.218 235.955 129.588 L 235.830 133.958 233.833 133.958 L 231.835 133.958 231.770 123.096 C 231.734 117.122,231.762 112.087,231.831 111.905 C 232.094 111.220,242.823 111.609,244.288 112.357 M266.765 112.005 C 267.675 114.378,266.809 115.331,263.670 115.412 L 261.049 115.481 260.916 124.719 C 260.843 129.800,260.759 133.990,260.729 134.030 C 260.699 134.071,259.803 134.071,258.739 134.030 L 256.804 133.958 256.679 124.719 L 256.554 115.481 253.947 115.409 C 252.513 115.370,251.193 115.215,251.013 115.066 C 250.674 114.785,250.543 112.087,250.853 111.777 C 251.257 111.373,266.607 111.594,266.765 112.005 M236.063 115.684 C 235.994 115.864,235.969 117.241,236.009 118.743 L 236.080 121.473 238.577 121.551 C 243.390 121.702,245.609 118.236,242.302 115.734 C 241.646 115.238,236.251 115.194,236.063 115.684 M242.468 116.546 C 244.896 119.265,240.782 122.601,236.845 121.105 C 236.199 120.859,235.815 116.328,236.392 115.751 C 237.027 115.116,241.742 115.733,242.468 116.546 M152.353 117.539 C 145.759 119.814,146.006 132.505,152.683 134.446 C 157.877 135.956,163.841 133.017,160.861 130.415 C 159.763 129.456,159.483 129.422,158.182 130.085 C 156.039 131.178,153.913 130.881,152.871 129.345 C 151.693 127.605,151.726 127.591,157.116 127.587 C 162.962 127.582,162.684 127.719,162.627 124.875 C 162.513 119.107,157.722 115.687,152.353 117.539 M172.160 117.407 C 171.748 117.551,171.292 117.763,171.148 117.876 C 171.002 117.990,170.573 117.920,170.183 117.718 C 169.332 117.276,166.514 117.231,166.092 117.653 C 165.872 117.874,165.793 120.067,165.793 125.968 C 165.793 135.129,165.649 134.582,168.059 134.582 C 170.292 134.582,170.216 134.785,170.333 128.530 C 170.458 121.826,170.954 120.829,173.779 121.600 C 175.382 122.038,175.531 122.637,175.531 128.684 C 175.531 132.472,175.616 134.068,175.830 134.282 C 176.228 134.680,179.577 134.680,179.975 134.282 C 180.486 133.771,180.385 122.653,179.854 121.031 C 178.856 117.979,175.297 116.303,172.160 117.407 M187.014 117.502 C 180.768 119.421,181.944 127.137,188.566 127.690 C 190.833 127.879,192.260 128.372,192.260 128.967 C 192.260 130.875,188.900 131.331,186.042 129.812 C 185.025 129.272,184.750 129.385,183.322 130.935 C 181.957 132.416,182.451 133.240,185.322 134.268 C 191.054 136.322,196.857 133.712,196.839 129.090 C 196.824 125.521,195.192 124.154,190.403 123.699 C 188.193 123.488,187.765 123.273,187.765 122.369 C 187.765 121.072,189.883 120.753,192.821 121.606 L 194.006 121.951 195.005 120.975 C 196.300 119.710,196.362 118.799,195.194 118.195 C 193.105 117.114,189.318 116.793,187.014 117.502 M203.722 117.442 C 200.337 118.521,198.876 121.091,198.876 125.968 C 198.876 131.845,201.358 134.831,206.242 134.831 C 211.824 134.831,214.818 129.785,213.357 122.839 C 212.427 118.420,208.158 116.028,203.722 117.442 M222.688 117.686 C 221.576 118.232,221.521 118.236,221.244 117.793 C 220.997 117.396,220.676 117.343,218.906 117.406 L 216.854 117.478 216.854 125.968 L 216.854 134.457 218.965 134.457 C 221.579 134.457,221.413 134.882,221.457 128.090 C 221.498 121.684,222.065 120.707,225.134 121.750 C 226.414 122.184,226.453 122.167,228.152 120.380 C 229.289 119.185,229.371 118.954,228.885 118.315 C 227.930 117.061,224.645 116.727,222.688 117.686 M159.212 118.665 C 161.225 119.946,162.360 122.387,162.245 125.191 L 162.172 126.966 157.267 127.034 C 151.960 127.107,151.596 127.203,151.907 128.442 C 152.547 130.990,155.705 131.939,158.544 130.435 L 159.660 129.844 160.604 130.765 C 161.731 131.865,161.759 132.085,160.861 132.748 C 157.583 135.172,151.831 134.790,149.757 132.011 C 147.342 128.776,147.533 122.233,150.120 119.548 C 152.264 117.323,156.460 116.916,159.212 118.665 M176.280 117.870 C 179.182 118.666,179.650 120.018,179.650 127.591 L 179.650 133.958 177.857 134.031 L 176.064 134.104 175.985 128.537 C 175.894 122.188,175.767 121.753,173.811 121.108 C 170.772 120.105,169.791 122.097,169.789 129.276 L 169.788 134.082 168.069 134.082 C 166.498 134.082,166.337 134.034,166.200 133.521 C 166.003 132.788,166.003 119.147,166.200 118.414 C 166.390 117.706,169.615 117.542,169.878 118.227 C 170.058 118.697,170.772 118.709,171.423 118.253 C 172.084 117.790,174.002 117.368,174.782 117.514 C 175.125 117.578,175.799 117.739,176.280 117.870 M192.385 117.748 C 195.282 118.143,196.203 119.136,194.890 120.449 C 193.884 121.455,193.493 121.525,192.111 120.948 C 189.931 120.037,187.266 120.869,187.266 122.461 C 187.266 123.447,188.016 123.811,190.899 124.227 C 195.843 124.940,197.928 127.933,195.934 131.454 C 194.305 134.331,188.324 135.375,184.504 133.448 C 182.648 132.511,182.598 132.325,183.842 130.951 L 184.923 129.756 186.329 130.421 C 188.834 131.606,191.909 131.286,192.535 129.776 C 193.112 128.383,191.676 127.349,189.139 127.331 C 185.536 127.305,183.521 125.670,183.521 122.772 C 183.521 119.529,186.774 117.022,190.387 117.482 C 190.799 117.535,191.698 117.654,192.385 117.748 M207.854 117.727 C 211.524 118.350,213.050 120.770,213.050 125.968 C 213.050 131.488,211.365 133.856,207.156 134.249 C 201.999 134.731,199.268 131.864,199.268 125.968 C 199.268 120.587,202.585 116.691,206.492 117.483 C 206.698 117.525,207.311 117.635,207.854 117.727 M228.135 118.234 C 228.845 118.699,228.846 118.753,228.175 119.732 C 227.143 121.239,226.223 121.666,224.966 121.222 C 223.671 120.766,222.623 121.015,221.697 121.999 C 221.111 122.623,221.096 122.748,220.974 128.297 L 220.849 133.958 218.976 133.958 L 217.104 133.958 217.104 125.968 L 217.104 117.978 218.818 117.903 C 220.157 117.845,220.636 117.922,221.003 118.253 C 221.441 118.650,221.534 118.651,222.409 118.266 C 224.465 117.361,226.783 117.348,228.135 118.234 M153.912 120.841 C 153.233 121.116,152.101 122.472,151.907 123.243 C 151.622 124.380,152.118 124.594,155.039 124.594 C 158.310 124.594,158.817 124.357,158.305 123.067 C 157.506 121.052,155.679 120.126,153.912 120.841 M205.061 121.209 C 202.231 122.474,202.471 129.796,205.376 130.806 C 207.786 131.644,209.327 129.756,209.327 125.968 C 209.327 121.998,207.602 120.074,205.061 121.209 M156.559 121.476 C 157.403 121.912,157.803 122.548,157.803 123.454 L 157.803 124.095 155.173 124.095 C 152.238 124.095,151.986 123.947,152.669 122.626 C 153.390 121.232,155.106 120.724,156.559 121.476 M207.891 122.122 C 210.057 124.156,209.001 130.288,206.469 130.381 C 204.379 130.457,203.717 129.555,203.545 126.398 C 203.318 122.231,205.608 119.977,207.891 122.122 " stroke="none" fill="#b4dc7c" fill-rule="evenodd"></path></g></svg>